<svg width="58" height="57" viewBox="0 0 58 57" fill="none" xmlns="http://www.w3.org/2000/svg">
<path d="M32.7773 51.0488C30.9821 53.7214 27.0178 53.7214 25.2227 51.0488L25.0498 50.7734L4.70508 15.5342C2.94969 12.4937 5.14364 8.69267 8.6543 8.69238L49.3457 8.69238C52.8564 8.69267 55.0503 12.4938 53.2949 15.5342L32.9502 50.7734L32.7773 51.0488Z" fill="url(#paint0_linear_2026_301)" stroke="white" stroke-width="7.61435"/>
<mask id="path-2-outside-1_2026_301" maskUnits="userSpaceOnUse" x="4.0453" y="0.0363922" width="48" height="49" fill="black">
<rect fill="white" x="4.0453" y="0.0363922" width="48" height="49"/>
<path d="M41.2768 28.3319C42.196 28.3319 42.8854 28.5289 43.345 28.9228C43.8374 29.2839 44.0836 29.8092 44.0836 30.4986C44.0836 30.794 44.0344 31.1223 43.9359 31.4834L42.3109 37.2447C41.8841 38.6564 41.2768 39.6412 40.4889 40.1993C39.7339 40.7574 38.6013 41.0364 37.0912 41.0364H13.9474C13.258 41.0364 12.7327 40.9215 12.3716 40.6917C11.9777 40.4619 11.7807 40.15 11.7807 39.7561C11.7807 39.5591 11.83 39.3457 11.9284 39.1159C12.0269 38.8533 12.1911 38.6399 12.4209 38.4758C12.6507 38.2788 12.8969 38.0983 13.1595 37.9341C13.6847 37.6059 14.1115 37.2776 14.4398 36.9493C14.7681 36.5882 15.0471 36.0137 15.2769 35.2258L21.2845 14.0024C21.4158 13.5757 21.4814 13.1653 21.4814 12.7714C21.4814 12.4103 21.4158 12.1148 21.2845 11.885C21.186 11.6224 21.0382 11.3269 20.8413 10.9987C20.5458 10.5719 20.3981 10.2272 20.3981 9.96457C20.3981 9.86608 20.4309 9.68553 20.4966 9.4229C20.6279 8.99614 20.9069 8.70069 21.3337 8.53654C21.7933 8.33958 22.4827 8.24109 23.4019 8.24109H34.9738C35.6632 8.24109 36.1884 8.35599 36.5495 8.58579C36.9435 8.78275 37.1404 9.07821 37.1404 9.47215C37.1404 9.63629 37.0912 9.84967 36.9927 10.1123C36.8942 10.3421 36.7465 10.5555 36.5495 10.7524C36.3854 10.9166 36.2213 11.0479 36.0571 11.1464C35.9258 11.212 35.8273 11.2777 35.7617 11.3433C35.2364 11.6388 34.8096 11.9671 34.4814 12.3282C34.1531 12.6893 33.874 13.2474 33.6442 14.0024L27.292 36.3091H30.345C31.1001 36.3091 31.7402 36.1778 32.2655 35.9152C32.8235 35.6526 33.398 35.1602 33.9889 34.4379L37.3867 30.4001C38.0104 29.6779 38.6013 29.1526 39.1594 28.8243C39.7503 28.496 40.4561 28.3319 41.2768 28.3319Z"/>
</mask>
<path d="M41.2768 28.3319C42.196 28.3319 42.8854 28.5289 43.345 28.9228C43.8374 29.2839 44.0836 29.8092 44.0836 30.4986C44.0836 30.794 44.0344 31.1223 43.9359 31.4834L42.3109 37.2447C41.8841 38.6564 41.2768 39.6412 40.4889 40.1993C39.7339 40.7574 38.6013 41.0364 37.0912 41.0364H13.9474C13.258 41.0364 12.7327 40.9215 12.3716 40.6917C11.9777 40.4619 11.7807 40.15 11.7807 39.7561C11.7807 39.5591 11.83 39.3457 11.9284 39.1159C12.0269 38.8533 12.1911 38.6399 12.4209 38.4758C12.6507 38.2788 12.8969 38.0983 13.1595 37.9341C13.6847 37.6059 14.1115 37.2776 14.4398 36.9493C14.7681 36.5882 15.0471 36.0137 15.2769 35.2258L21.2845 14.0024C21.4158 13.5757 21.4814 13.1653 21.4814 12.7714C21.4814 12.4103 21.4158 12.1148 21.2845 11.885C21.186 11.6224 21.0382 11.3269 20.8413 10.9987C20.5458 10.5719 20.3981 10.2272 20.3981 9.96457C20.3981 9.86608 20.4309 9.68553 20.4966 9.4229C20.6279 8.99614 20.9069 8.70069 21.3337 8.53654C21.7933 8.33958 22.4827 8.24109 23.4019 8.24109H34.9738C35.6632 8.24109 36.1884 8.35599 36.5495 8.58579C36.9435 8.78275 37.1404 9.07821 37.1404 9.47215C37.1404 9.63629 37.0912 9.84967 36.9927 10.1123C36.8942 10.3421 36.7465 10.5555 36.5495 10.7524C36.3854 10.9166 36.2213 11.0479 36.0571 11.1464C35.9258 11.212 35.8273 11.2777 35.7617 11.3433C35.2364 11.6388 34.8096 11.9671 34.4814 12.3282C34.1531 12.6893 33.874 13.2474 33.6442 14.0024L27.292 36.3091H30.345C31.1001 36.3091 31.7402 36.1778 32.2655 35.9152C32.8235 35.6526 33.398 35.1602 33.9889 34.4379L37.3867 30.4001C38.0104 29.6779 38.6013 29.1526 39.1594 28.8243C39.7503 28.496 40.4561 28.3319 41.2768 28.3319Z" fill="white"/>
<path d="M43.345 28.9228L38.3896 34.7041L38.609 34.8921L38.8421 35.0631L43.345 28.9228ZM43.9359 31.4834L51.2643 33.5504L51.2732 33.5187L51.2819 33.4869L43.9359 31.4834ZM42.3109 37.2447L49.5994 39.4483L49.62 39.3802L49.6393 39.3117L42.3109 37.2447ZM40.4889 40.1993L36.0877 33.9858L36.0249 34.0303L35.963 34.076L40.4889 40.1993ZM12.3716 40.6917L16.4596 34.2678L16.3354 34.1887L16.2083 34.1146L12.3716 40.6917ZM11.9284 39.1159L18.9271 42.1154L18.9963 41.954L19.058 41.7895L11.9284 39.1159ZM12.4209 38.4758L16.8466 44.6718L17.1206 44.4762L17.3762 44.257L12.4209 38.4758ZM13.1595 37.9341L17.1951 44.3911L17.1951 44.3911L13.1595 37.9341ZM14.4398 36.9493L19.8239 42.3334L19.9521 42.2053L20.074 42.0713L14.4398 36.9493ZM15.2769 35.2258L22.5867 37.3578L22.5952 37.3288L22.6034 37.2997L15.2769 35.2258ZM21.2845 14.0024L14.0068 11.7632L13.9815 11.8456L13.958 11.9286L21.2845 14.0024ZM21.2845 11.885L14.1549 14.5586L14.3698 15.1315L14.6734 15.6628L21.2845 11.885ZM20.8413 10.9987L27.3705 7.0811L27.2429 6.86842L27.1017 6.66449L20.8413 10.9987ZM20.4966 9.4229L13.2189 7.18364L13.159 7.37843L13.1096 7.57615L20.4966 9.4229ZM21.3337 8.53654L24.0671 15.6434L24.2011 15.5918L24.3331 15.5352L21.3337 8.53654ZM36.5495 8.58579L32.4616 15.0097L32.793 15.2206L33.1443 15.3963L36.5495 8.58579ZM36.9927 10.1123L43.9914 13.1118L44.0606 12.9503L44.1223 12.7859L36.9927 10.1123ZM36.5495 10.7524L41.9337 16.1366L41.9337 16.1366L36.5495 10.7524ZM36.0571 11.1464L39.4624 17.9568L39.7239 17.8261L39.9746 17.6757L36.0571 11.1464ZM35.7617 11.3433L39.4947 17.9798L40.4062 17.4671L41.1458 16.7275L35.7617 11.3433ZM34.4814 12.3282L40.1155 17.4502L40.1155 17.4501L34.4814 12.3282ZM33.6442 14.0024L26.3598 11.7854L26.3398 11.851L26.321 11.917L33.6442 14.0024ZM27.292 36.3091L19.9688 34.2237L17.2066 43.9235H27.292V36.3091ZM32.2655 35.9152L29.0233 29.0256L28.9413 29.0642L28.8602 29.1047L32.2655 35.9152ZM33.9889 34.4379L28.1628 29.5355L28.129 29.5756L28.0958 29.6162L33.9889 34.4379ZM37.3867 30.4001L31.6239 25.4232L31.592 25.4602L31.5605 25.4976L37.3867 30.4001ZM39.1594 28.8243L35.4615 22.1682L35.3796 22.2137L35.2987 22.2613L39.1594 28.8243ZM41.2768 28.3319V35.9463C41.2173 35.9463 40.887 35.9426 40.3914 35.801C39.874 35.6532 39.1317 35.3402 38.3896 34.7041L43.345 28.9228L48.3003 23.1416C45.9007 21.0847 43.1071 20.7176 41.2768 20.7176V28.3319ZM43.345 28.9228L38.8421 35.0631C38.1162 34.5307 37.4512 33.7725 37.0045 32.8194C36.5725 31.8978 36.4692 31.0629 36.4692 30.4986H44.0836H51.6979C51.6979 27.7434 50.5692 24.7783 47.8478 22.7826L43.345 28.9228ZM44.0836 30.4986H36.4692C36.4692 29.9653 36.5552 29.6068 36.5898 29.4799L43.9359 31.4834L51.2819 33.4869C51.5135 32.6378 51.6979 31.6228 51.6979 30.4986H44.0836ZM43.9359 31.4834L36.6074 29.4164L34.9824 35.1778L42.3109 37.2447L49.6393 39.3117L51.2643 33.5504L43.9359 31.4834ZM42.3109 37.2447L35.0223 35.0412C34.9501 35.2802 34.933 35.242 35.0542 35.0454C35.1833 34.836 35.498 34.4035 36.0877 33.9858L40.4889 40.1993L44.8901 46.4128C47.6196 44.4794 48.9276 41.6703 49.5994 39.4483L42.3109 37.2447ZM40.4889 40.1993L35.963 34.076C36.5645 33.6314 37.0705 33.4785 37.2517 33.4339C37.4262 33.3908 37.402 33.422 37.0912 33.422V41.0364V48.6507C39.3163 48.6507 42.3676 48.2792 45.0148 46.3226L40.4889 40.1993ZM37.0912 41.0364V33.422H13.9474V41.0364V48.6507H37.0912V41.0364ZM13.9474 41.0364V33.422C14.0049 33.422 14.2666 33.4249 14.6636 33.5118C15.0599 33.5985 15.7204 33.7974 16.4596 34.2678L12.3716 40.6917L8.28366 47.1156C10.4019 48.4636 12.6124 48.6507 13.9474 48.6507V41.0364ZM12.3716 40.6917L16.2083 34.1146C16.8219 34.4725 17.6754 35.1255 18.3663 36.2194C19.0892 37.364 19.3951 38.616 19.3951 39.7561H11.7807H4.16637C4.16637 43.3313 6.24144 45.9309 8.53497 47.2688L12.3716 40.6917ZM11.7807 39.7561H19.3951C19.3951 40.8277 19.1295 41.6431 18.9271 42.1154L11.9284 39.1159L4.92975 36.1165C4.53037 37.0484 4.16637 38.2905 4.16637 39.7561H11.7807ZM11.9284 39.1159L19.058 41.7895C18.6213 42.9539 17.8391 43.963 16.8466 44.6718L12.4209 38.4758L7.99511 32.2797C6.54307 33.3169 5.43251 34.7527 4.7989 36.4424L11.9284 39.1159ZM12.4209 38.4758L17.3762 44.257C17.3101 44.3137 17.248 44.358 17.1951 44.3911L13.1595 37.9341L9.1239 31.4772C8.54572 31.8385 7.9912 32.244 7.46551 32.6946L12.4209 38.4758ZM13.1595 37.9341L17.1951 44.3911C18.0576 43.852 18.9788 43.1786 19.8239 42.3334L14.4398 36.9493L9.05564 31.5651C9.10776 31.513 9.14987 31.4748 9.17874 31.4497C9.20767 31.4245 9.22587 31.4103 9.23096 31.4064C9.23937 31.3999 9.20781 31.4247 9.1239 31.4772L13.1595 37.9341ZM14.4398 36.9493L20.074 42.0713C21.5394 40.4592 22.2256 38.5959 22.5867 37.3578L15.2769 35.2258L7.96714 33.0938C7.94006 33.1866 7.9549 33.1086 8.04611 32.9209C8.132 32.744 8.35745 32.3203 8.80563 31.8273L14.4398 36.9493ZM15.2769 35.2258L22.6034 37.2997L28.6109 16.0763L21.2845 14.0024L13.958 11.9286L7.95042 33.152L15.2769 35.2258ZM21.2845 14.0024L28.5621 16.2417C28.8873 15.1846 29.0958 14.0179 29.0958 12.7714H21.4814H13.8671C13.8671 12.3127 13.9442 11.9667 14.0068 11.7632L21.2845 14.0024ZM21.4814 12.7714H29.0958C29.0958 11.5478 28.881 9.83178 27.8956 8.10723L21.2845 11.885L14.6734 15.6628C13.9505 14.3978 13.8671 13.2727 13.8671 12.7714H21.4814ZM21.2845 11.885L28.414 9.21144C28.1071 8.39304 27.7255 7.67269 27.3705 7.0811L20.8413 10.9987L14.312 14.9162C14.3256 14.9388 14.315 14.923 14.2893 14.8717C14.2644 14.8218 14.2138 14.7157 14.1549 14.5586L21.2845 11.885ZM20.8413 10.9987L27.1017 6.66449C27.1424 6.72319 27.3207 6.98464 27.5076 7.42062C27.6793 7.82132 28.0124 8.72299 28.0124 9.96457H20.3981H12.7838C12.7838 12.6829 14.1219 14.67 14.5808 15.3328L20.8413 10.9987ZM20.3981 9.96457H28.0124C28.0124 10.3328 27.9838 10.6178 27.9664 10.765C27.9473 10.9275 27.9265 11.0503 27.9142 11.1174C27.8908 11.2462 27.874 11.3081 27.8836 11.2697L20.4966 9.4229L13.1096 7.57615C13.0683 7.7412 12.7838 8.79373 12.7838 9.96457H20.3981ZM20.4966 9.4229L27.7742 11.6622C27.5307 12.4537 27.0795 13.3265 26.3401 14.1094C25.6049 14.8878 24.7827 15.3681 24.0671 15.6434L21.3337 8.53654L18.6003 1.42973C16.0532 2.40938 14.0567 4.46096 13.2189 7.18364L20.4966 9.4229ZM21.3337 8.53654L24.3331 15.5352C24.0318 15.6644 23.7837 15.7391 23.6178 15.7817C23.4499 15.8249 23.3298 15.8446 23.2723 15.8528C23.1683 15.8676 23.196 15.8554 23.4019 15.8554V8.24109V0.626745C22.1712 0.626745 20.2331 0.724085 18.3343 1.53785L21.3337 8.53654ZM23.4019 8.24109V15.8554H34.9738V8.24109V0.626745H23.4019V8.24109ZM34.9738 8.24109V15.8554C34.9163 15.8554 34.6546 15.8526 34.2576 15.7657C33.8613 15.679 33.2007 15.4801 32.4616 15.0097L36.5495 8.58579L40.6375 2.16185C38.5192 0.813881 36.3088 0.626745 34.9738 0.626745V8.24109ZM36.5495 8.58579L33.1443 15.3963C32.438 15.0431 31.4508 14.3692 30.6572 13.1788C29.8318 11.9407 29.5261 10.6076 29.5261 9.47215H37.1404H44.7548C44.7548 7.94279 44.3506 6.26493 43.3282 4.73142C42.3377 3.24559 41.055 2.32543 39.9548 1.7753L36.5495 8.58579ZM37.1404 9.47215H29.5261C29.5261 8.8233 29.6193 8.32401 29.6842 8.04314C29.7523 7.74764 29.8256 7.53889 29.8632 7.43873L36.9927 10.1123L44.1223 12.7859C44.3472 12.1861 44.7548 10.9744 44.7548 9.47215H37.1404ZM36.9927 10.1123L29.994 7.11283C30.3183 6.35612 30.7555 5.77822 31.1654 5.36831L36.5495 10.7524L41.9337 16.1366C42.7376 15.3327 43.4701 14.3281 43.9914 13.1118L36.9927 10.1123ZM36.5495 10.7524L31.1654 5.36829C31.3518 5.18189 31.6711 4.89821 32.1396 4.6171L36.0571 11.1464L39.9746 17.6757C40.7714 17.1976 41.419 16.6513 41.9337 16.1366L36.5495 10.7524ZM36.0571 11.1464L32.6518 4.33593C32.1622 4.58074 31.2575 5.07918 30.3775 5.95915L35.7617 11.3433L41.1458 16.7275C40.743 17.1303 40.3688 17.4068 40.1085 17.5804C39.8415 17.7583 39.6151 17.8805 39.4624 17.9568L36.0571 11.1464ZM35.7617 11.3433L32.0286 4.70687C30.9529 5.31195 29.8354 6.11926 28.8472 7.20624L34.4814 12.3282L40.1155 17.4501C39.7839 17.8149 39.5199 17.9657 39.4947 17.9798L35.7617 11.3433ZM34.4814 12.3282L28.8472 7.20622C27.4336 8.76124 26.7385 10.5411 26.3598 11.7854L33.6442 14.0024L40.9287 16.2194C40.9502 16.1489 40.9302 16.2352 40.8364 16.4228C40.7462 16.6032 40.5293 16.995 40.1155 17.4502L34.4814 12.3282ZM33.6442 14.0024L26.321 11.917L19.9688 34.2237L27.292 36.3091L34.6152 38.3946L40.9675 16.0878L33.6442 14.0024ZM27.292 36.3091V43.9235H30.345V36.3091V28.6948H27.292V36.3091ZM30.345 36.3091V43.9235C31.9552 43.9235 33.8301 43.646 35.6707 42.7257L32.2655 35.9152L28.8602 29.1047C29.6503 28.7097 30.2449 28.6948 30.345 28.6948V36.3091ZM32.2655 35.9152L35.5076 42.8048C37.4828 41.8753 38.9079 40.4503 39.8821 39.2596L33.9889 34.4379L28.0958 29.6162C28.0213 29.7072 28.0388 29.6712 28.1595 29.5677C28.2785 29.4657 28.563 29.2422 29.0233 29.0256L32.2655 35.9152ZM33.9889 34.4379L39.8151 39.3404L43.2128 35.3026L37.3867 30.4001L31.5605 25.4976L28.1628 29.5355L33.9889 34.4379ZM37.3867 30.4001L43.1494 35.377C43.2155 35.3003 43.2671 35.2448 43.3038 35.2072C43.3405 35.1695 43.3582 35.1538 43.3563 35.1555C43.3546 35.157 43.3278 35.1808 43.2753 35.2198C43.2229 35.2587 43.138 35.318 43.02 35.3874L39.1594 28.8243L35.2987 22.2613C33.7713 23.1598 32.5583 24.3412 31.6239 25.4232L37.3867 30.4001ZM39.1594 28.8243L42.8572 35.4805C42.0984 35.902 41.4747 35.9463 41.2768 35.9463V28.3319V20.7176C39.4375 20.7176 37.4022 21.0901 35.4615 22.1682L39.1594 28.8243Z" fill="white" mask="url(#path-2-outside-1_2026_301)"/>
<path d="M30.7178 49.6553C29.9014 50.8705 28.0986 50.8705 27.2822 49.6553L27.2041 49.5293L6.8584 14.291C6.06019 12.9085 7.05798 11.18 8.6543 11.1797L49.3457 11.1797C50.942 11.18 51.9398 12.9085 51.1416 14.291L30.7959 49.5293L30.7178 49.6553Z" fill="#FF8F03" stroke="#975300" stroke-width="2.64072"/>
<mask id="path-5-outside-2_2026_301" maskUnits="userSpaceOnUse" x="9.0453" y="5.03639" width="38" height="39" fill="black">
<rect fill="white" x="9.0453" y="5.03639" width="38" height="39"/>
<path d="M41.2768 28.3319C42.196 28.3319 42.8854 28.5289 43.345 28.9228C43.8374 29.2839 44.0836 29.8092 44.0836 30.4986C44.0836 30.794 44.0344 31.1223 43.9359 31.4834L42.3109 37.2447C41.8841 38.6564 41.2768 39.6412 40.4889 40.1993C39.7339 40.7574 38.6013 41.0364 37.0912 41.0364H13.9474C13.258 41.0364 12.7327 40.9215 12.3716 40.6917C11.9777 40.4619 11.7807 40.15 11.7807 39.7561C11.7807 39.5591 11.83 39.3457 11.9284 39.1159C12.0269 38.8533 12.1911 38.6399 12.4209 38.4758C12.6507 38.2788 12.8969 38.0983 13.1595 37.9341C13.6847 37.6059 14.1115 37.2776 14.4398 36.9493C14.7681 36.5882 15.0471 36.0137 15.2769 35.2258L21.2845 14.0024C21.4158 13.5757 21.4814 13.1653 21.4814 12.7714C21.4814 12.4103 21.4158 12.1148 21.2845 11.885C21.186 11.6224 21.0382 11.3269 20.8413 10.9987C20.5458 10.5719 20.3981 10.2272 20.3981 9.96457C20.3981 9.86608 20.4309 9.68553 20.4966 9.4229C20.6279 8.99614 20.9069 8.70069 21.3337 8.53654C21.7933 8.33958 22.4827 8.24109 23.4019 8.24109H34.9738C35.6632 8.24109 36.1884 8.35599 36.5495 8.58579C36.9435 8.78275 37.1404 9.07821 37.1404 9.47215C37.1404 9.63629 37.0912 9.84967 36.9927 10.1123C36.8942 10.3421 36.7465 10.5555 36.5495 10.7524C36.3854 10.9166 36.2213 11.0479 36.0571 11.1464C35.9258 11.212 35.8273 11.2777 35.7617 11.3433C35.2364 11.6388 34.8096 11.9671 34.4814 12.3282C34.1531 12.6893 33.874 13.2474 33.6442 14.0024L27.292 36.3091H30.345C31.1001 36.3091 31.7402 36.1778 32.2655 35.9152C32.8235 35.6526 33.398 35.1602 33.9889 34.4379L37.3867 30.4001C38.0104 29.6779 38.6013 29.1526 39.1594 28.8243C39.7503 28.496 40.4561 28.3319 41.2768 28.3319Z"/>
</mask>
<path d="M41.2768 28.3319C42.196 28.3319 42.8854 28.5289 43.345 28.9228C43.8374 29.2839 44.0836 29.8092 44.0836 30.4986C44.0836 30.794 44.0344 31.1223 43.9359 31.4834L42.3109 37.2447C41.8841 38.6564 41.2768 39.6412 40.4889 40.1993C39.7339 40.7574 38.6013 41.0364 37.0912 41.0364H13.9474C13.258 41.0364 12.7327 40.9215 12.3716 40.6917C11.9777 40.4619 11.7807 40.15 11.7807 39.7561C11.7807 39.5591 11.83 39.3457 11.9284 39.1159C12.0269 38.8533 12.1911 38.6399 12.4209 38.4758C12.6507 38.2788 12.8969 38.0983 13.1595 37.9341C13.6847 37.6059 14.1115 37.2776 14.4398 36.9493C14.7681 36.5882 15.0471 36.0137 15.2769 35.2258L21.2845 14.0024C21.4158 13.5757 21.4814 13.1653 21.4814 12.7714C21.4814 12.4103 21.4158 12.1148 21.2845 11.885C21.186 11.6224 21.0382 11.3269 20.8413 10.9987C20.5458 10.5719 20.3981 10.2272 20.3981 9.96457C20.3981 9.86608 20.4309 9.68553 20.4966 9.4229C20.6279 8.99614 20.9069 8.70069 21.3337 8.53654C21.7933 8.33958 22.4827 8.24109 23.4019 8.24109H34.9738C35.6632 8.24109 36.1884 8.35599 36.5495 8.58579C36.9435 8.78275 37.1404 9.07821 37.1404 9.47215C37.1404 9.63629 37.0912 9.84967 36.9927 10.1123C36.8942 10.3421 36.7465 10.5555 36.5495 10.7524C36.3854 10.9166 36.2213 11.0479 36.0571 11.1464C35.9258 11.212 35.8273 11.2777 35.7617 11.3433C35.2364 11.6388 34.8096 11.9671 34.4814 12.3282C34.1531 12.6893 33.874 13.2474 33.6442 14.0024L27.292 36.3091H30.345C31.1001 36.3091 31.7402 36.1778 32.2655 35.9152C32.8235 35.6526 33.398 35.1602 33.9889 34.4379L37.3867 30.4001C38.0104 29.6779 38.6013 29.1526 39.1594 28.8243C39.7503 28.496 40.4561 28.3319 41.2768 28.3319Z" fill="#FBF1F0"/>
<path d="M43.345 28.9228L41.6264 30.9278L41.7025 30.993L41.7833 31.0523L43.345 28.9228ZM43.9359 31.4834L46.4774 32.2003L46.4805 32.1893L46.4835 32.1782L43.9359 31.4834ZM42.3109 37.2447L44.8386 38.0089L44.8457 37.9853L44.8524 37.9616L42.3109 37.2447ZM40.4889 40.1993L38.9625 38.0444L38.9408 38.0598L38.9193 38.0757L40.4889 40.1993ZM12.3716 40.6917L13.7894 38.4638L13.7463 38.4364L13.7022 38.4107L12.3716 40.6917ZM11.9284 39.1159L14.3556 40.1562L14.3796 40.1002L14.401 40.0432L11.9284 39.1159ZM12.4209 38.4758L13.9557 40.6246L14.0508 40.5568L14.1394 40.4808L12.4209 38.4758ZM13.1595 37.9341L14.5591 40.1735L14.5591 40.1735L13.1595 37.9341ZM14.4398 36.9493L16.3071 38.8166L16.3515 38.7721L16.3938 38.7256L14.4398 36.9493ZM15.2769 35.2258L17.812 35.9652L17.8149 35.9551L17.8178 35.945L15.2769 35.2258ZM21.2845 14.0024L18.7605 13.2258L18.7517 13.2544L18.7436 13.2832L21.2845 14.0024ZM21.2845 11.885L18.8119 12.8122L18.8864 13.0109L18.9917 13.1952L21.2845 11.885ZM20.8413 10.9987L23.1057 9.64002L23.0614 9.56626L23.0125 9.49553L20.8413 10.9987ZM20.4966 9.4229L17.9726 8.64631L17.9519 8.71386L17.9347 8.78244L20.4966 9.4229ZM21.3337 8.53654L22.2817 11.0012L22.3281 10.9834L22.3739 10.9637L21.3337 8.53654ZM36.5495 8.58579L35.1318 10.8137L35.2467 10.8868L35.3686 10.9477L36.5495 8.58579ZM36.9927 10.1123L39.4199 11.1525L39.4439 11.0965L39.4653 11.0395L36.9927 10.1123ZM36.5495 10.7524L38.4168 12.6197L38.4168 12.6197L36.5495 10.7524ZM36.0571 11.1464L37.2381 13.5083L37.3288 13.463L37.4157 13.4108L36.0571 11.1464ZM35.7617 11.3433L37.0563 13.6449L37.3724 13.4671L37.6289 13.2106L35.7617 11.3433ZM34.4814 12.3282L36.4353 14.1045L36.4353 14.1045L34.4814 12.3282ZM33.6442 14.0024L31.1179 13.2336L31.111 13.2563L31.1045 13.2792L33.6442 14.0024ZM27.292 36.3091L24.7523 35.5859L23.7943 38.9499H27.292V36.3091ZM32.2655 35.9152L31.1411 33.5258L31.1126 33.5392L31.0845 33.5533L32.2655 35.9152ZM33.9889 34.4379L31.9684 32.7377L31.9567 32.7516L31.9451 32.7657L33.9889 34.4379ZM37.3867 30.4001L35.3881 28.6741L35.377 28.6869L35.3661 28.6999L37.3867 30.4001ZM39.1594 28.8243L37.8769 26.5159L37.8485 26.5317L37.8205 26.5482L39.1594 28.8243ZM41.2768 28.3319V30.9726C41.5563 30.9726 41.7045 31.0035 41.7578 31.0187C41.8035 31.0318 41.7337 31.0197 41.6264 30.9278L43.345 28.9228L45.0635 26.9178C43.9311 25.9472 42.5119 25.6912 41.2768 25.6912V28.3319ZM43.345 28.9228L41.7833 31.0523C41.6924 30.9856 41.5824 30.8674 41.5079 30.7084C41.4385 30.5603 41.4429 30.4691 41.4429 30.4986H44.0836H46.7243C46.7243 29.0928 46.172 27.7213 44.9066 26.7933L43.345 28.9228ZM44.0836 30.4986H41.4429C41.4429 30.5066 41.4405 30.5967 41.3882 30.7886L43.9359 31.4834L46.4835 32.1782C46.6282 31.6479 46.7243 31.0814 46.7243 30.4986H44.0836ZM43.9359 31.4834L41.3943 30.7666L39.7693 36.5279L42.3109 37.2447L44.8524 37.9616L46.4774 32.2003L43.9359 31.4834ZM42.3109 37.2447L39.7831 36.4805C39.4414 37.6111 39.077 37.9633 38.9625 38.0444L40.4889 40.1993L42.0153 42.3542C43.4765 41.3191 44.3269 39.7016 44.8386 38.0089L42.3109 37.2447ZM40.4889 40.1993L38.9193 38.0757C38.8205 38.1487 38.3533 38.3957 37.0912 38.3957V41.0364V43.6771C38.8493 43.6771 40.6473 43.366 42.0585 42.3229L40.4889 40.1993ZM37.0912 41.0364V38.3957H13.9474V41.0364V43.6771H37.0912V41.0364ZM13.9474 41.0364V38.3957C13.8476 38.3957 13.7692 38.3915 13.7098 38.3859C13.6502 38.3802 13.6151 38.3737 13.6007 38.3705C13.5666 38.363 13.651 38.3758 13.7894 38.4638L12.3716 40.6917L10.9539 42.9196C11.9244 43.5372 13.0341 43.6771 13.9474 43.6771V41.0364ZM12.3716 40.6917L13.7022 38.4107C13.7864 38.4598 13.9859 38.5978 14.1611 38.8753C14.3475 39.1704 14.4214 39.4893 14.4214 39.7561H11.7807H9.13999C9.13999 41.2533 9.9883 42.3586 11.041 42.9727L12.3716 40.6917ZM11.7807 39.7561H14.4214C14.4214 39.9991 14.3615 40.1425 14.3556 40.1562L11.9284 39.1159L9.50124 38.0757C9.2984 38.549 9.13999 39.1192 9.13999 39.7561H11.7807ZM11.9284 39.1159L14.401 40.0432C14.3622 40.1467 14.3027 40.2596 14.2185 40.369C14.1344 40.4783 14.042 40.563 13.9557 40.6246L12.4209 38.4758L10.886 36.327C10.2323 36.7939 9.73993 37.4312 9.45586 38.1887L11.9284 39.1159ZM12.4209 38.4758L14.1394 40.4808C14.2666 40.3718 14.4059 40.2692 14.5591 40.1735L13.1595 37.9341L11.7599 35.6948C11.3879 35.9273 11.0347 36.1859 10.7023 36.4708L12.4209 38.4758ZM13.1595 37.9341L14.5591 40.1735C15.2013 39.7721 15.7995 39.3241 16.3071 38.8166L14.4398 36.9493L12.5725 35.082C12.4235 35.2311 12.1682 35.4396 11.7599 35.6948L13.1595 37.9341ZM14.4398 36.9493L16.3938 38.7256C17.1164 37.9307 17.5367 36.9092 17.812 35.9652L15.2769 35.2258L12.7418 34.4864C12.6574 34.7759 12.5794 34.9713 12.5199 35.0938C12.4586 35.2202 12.4376 35.226 12.4858 35.1729L14.4398 36.9493ZM15.2769 35.2258L17.8178 35.945L23.8253 14.7217L21.2845 14.0024L18.7436 13.2832L12.736 34.5066L15.2769 35.2258ZM21.2845 14.0024L23.8084 14.779C24.007 14.1337 24.1221 13.461 24.1221 12.7714H21.4814H18.8407C18.8407 12.8696 18.8246 13.0177 18.7605 13.2258L21.2845 14.0024ZM21.4814 12.7714H24.1221C24.1221 12.1112 24.0048 11.323 23.5772 10.5748L21.2845 11.885L18.9917 13.1952C18.8268 12.9066 18.8407 12.7094 18.8407 12.7714H21.4814ZM21.2845 11.885L23.757 10.9578C23.5863 10.5024 23.3574 10.0596 23.1057 9.64002L20.8413 10.9987L18.5769 12.3573C18.7191 12.5943 18.7857 12.7424 18.8119 12.8122L21.2845 11.885ZM20.8413 10.9987L23.0125 9.49553C22.9301 9.37651 22.9195 9.3412 22.9361 9.37983C22.9458 9.40255 22.9695 9.46157 22.9917 9.55279C23.0138 9.64382 23.0388 9.78467 23.0388 9.96457H20.3981H17.7574C17.7574 11.0788 18.318 11.9931 18.6701 12.5018L20.8413 10.9987ZM20.3981 9.96457H23.0388C23.0388 10.0239 23.0364 10.072 23.0341 10.1055C23.0317 10.1396 23.029 10.1663 23.0269 10.1839C23.0229 10.2175 23.0197 10.2339 23.0208 10.2277C23.0217 10.2229 23.0248 10.2068 23.0313 10.1773C23.0378 10.1483 23.0466 10.1107 23.0585 10.0634L20.4966 9.4229L17.9347 8.78244C17.8775 9.01122 17.7574 9.49418 17.7574 9.96457H20.3981ZM20.4966 9.4229L23.0205 10.1995C22.979 10.3346 22.8895 10.5194 22.7242 10.6944C22.5604 10.8679 22.3905 10.9594 22.2817 11.0012L21.3337 8.53654L20.3857 6.07184C19.2236 6.51881 18.3489 7.4233 17.9726 8.64631L20.4966 9.4229ZM21.3337 8.53654L22.3739 10.9637C22.3256 10.9845 22.3711 10.9574 22.5689 10.9291C22.758 10.9021 23.0303 10.8818 23.4019 10.8818V8.24109V5.60037C22.3747 5.60037 21.2522 5.69846 20.2935 6.10934L21.3337 8.53654ZM23.4019 8.24109V10.8818H34.9738V8.24109V5.60037H23.4019V8.24109ZM34.9738 8.24109V10.8818C35.0736 10.8818 35.152 10.886 35.2114 10.8916C35.2709 10.8973 35.306 10.9038 35.3205 10.907C35.3545 10.9144 35.2702 10.9017 35.1318 10.8137L36.5495 8.58579L37.9673 6.35791C36.9968 5.74032 35.8871 5.60037 34.9738 5.60037V8.24109ZM36.5495 8.58579L35.3686 10.9477C35.2523 10.8896 35.0064 10.7363 34.7955 10.4199C34.5736 10.087 34.4997 9.73726 34.4997 9.47215H37.1404H39.7812C39.7812 8.81309 39.6088 8.11862 39.1899 7.4903C38.7821 6.8785 38.2407 6.47897 37.7305 6.22385L36.5495 8.58579ZM37.1404 9.47215H34.4997C34.4997 9.30073 34.524 9.18922 34.5304 9.1615C34.538 9.12871 34.5393 9.13404 34.5201 9.18508L36.9927 10.1123L39.4653 11.0395C39.6076 10.66 39.7812 10.1004 39.7812 9.47215H37.1404ZM36.9927 10.1123L34.5655 9.07205C34.6137 8.95972 34.6688 8.89868 34.6823 8.88518L36.5495 10.7524L38.4168 12.6197C38.8243 12.2123 39.1748 11.7245 39.4199 11.1525L36.9927 10.1123ZM36.5495 10.7524L34.6823 8.88517C34.6621 8.90536 34.6523 8.91308 34.6537 8.91197C34.6551 8.91083 34.6698 8.89916 34.6985 8.88197L36.0571 11.1464L37.4157 13.4108C37.7993 13.1807 38.1311 12.9054 38.4168 12.6197L36.5495 10.7524ZM36.0571 11.1464L34.8761 8.78446C34.6206 8.91225 34.2425 9.128 33.8944 9.47606L35.7617 11.3433L37.6289 13.2106C37.5107 13.3289 37.4077 13.4033 37.3496 13.4421C37.2892 13.4823 37.2482 13.5033 37.2381 13.5083L36.0571 11.1464ZM35.7617 11.3433L34.467 9.04176C33.7509 9.4446 33.0845 9.93901 32.5274 10.5519L34.4814 12.3282L36.4353 14.1045C36.5348 13.9952 36.722 13.833 37.0563 13.6449L35.7617 11.3433ZM34.4814 12.3282L32.5274 10.5519C31.8227 11.327 31.3994 12.3088 31.1179 13.2336L33.6442 14.0024L36.1706 14.7713C36.2531 14.5002 36.3292 14.3157 36.3878 14.1986C36.4477 14.0788 36.4716 14.0646 36.4353 14.1045L34.4814 12.3282ZM33.6442 14.0024L31.1045 13.2792L24.7523 35.5859L27.292 36.3091L29.8318 37.0324L36.184 14.7257L33.6442 14.0024ZM27.292 36.3091V38.9499H30.345V36.3091V33.6684H27.292V36.3091ZM30.345 36.3091V38.9499C31.3966 38.9499 32.465 38.7678 33.4464 38.2771L32.2655 35.9152L31.0845 33.5533C31.0154 33.5878 30.8035 33.6684 30.345 33.6684V36.3091ZM32.2655 35.9152L33.3899 38.3046C34.4394 37.8107 35.3089 36.9948 36.0327 36.1101L33.9889 34.4379L31.9451 32.7657C31.4872 33.3255 31.2077 33.4945 31.1411 33.5258L32.2655 35.9152ZM33.9889 34.4379L36.0095 36.1382L39.4072 32.1003L37.3867 30.4001L35.3661 28.6999L31.9684 32.7377L33.9889 34.4379ZM37.3867 30.4001L39.3852 32.1261C39.9012 31.5286 40.2764 31.231 40.4983 31.1005L39.1594 28.8243L37.8205 26.5482C36.9262 27.0742 36.1196 27.8271 35.3881 28.6741L37.3867 30.4001ZM39.1594 28.8243L40.4418 31.1327C40.5646 31.0645 40.8093 30.9726 41.2768 30.9726V28.3319V25.6912C40.1028 25.6912 38.9359 25.9276 37.8769 26.5159L39.1594 28.8243Z" fill="#975300" mask="url(#path-5-outside-2_2026_301)"/>
<defs>
<linearGradient id="paint0_linear_2026_301" x1="29" y1="3.29806e-06" x2="29" y2="50" gradientUnits="userSpaceOnUse">
<stop stop-color="#FFCE1F"/>
<stop offset="1" stop-color="#FF8800"/>
</linearGradient>
</defs>
</svg>
