<svg width="62" height="62" viewBox="0 0 62 62" fill="none" xmlns="http://www.w3.org/2000/svg">
<path d="M34.2885 55.9925C32.5278 57.5578 29.8667 57.5577 28.1059 55.9925L27.933 55.8314L5.83927 34.1185C3.98243 32.2935 3.98254 29.301 5.83927 27.4759L27.933 5.76304C29.745 3.98256 32.6495 3.98242 34.4613 5.76304L56.5541 27.4759C58.4112 29.301 58.4112 32.2935 56.5541 34.1185L34.4613 55.8314L34.2885 55.9925Z" fill="#A25C1E" stroke="white" stroke-width="7.76701"/>
<mask id="path-2-outside-1_2026_309" maskUnits="userSpaceOnUse" x="5.44063" y="3.74384" width="49" height="57" fill="black">
<rect fill="white" x="5.44063" y="3.74384" width="49" height="57"/>
<path d="M45.9426 44.0379C45.987 45.3244 45.6765 46.6108 45.2329 47.8084C44.9224 48.5625 44.5675 49.3166 44.1239 50.0264C43.5472 50.9579 42.8375 51.8007 41.6398 52.0669C41.0631 52.2 40.5308 52.2443 39.9542 52.1113C37.3814 51.5346 35.2078 49.2723 33.5665 47.3205C31.9252 45.4131 30.4614 43.3282 29.175 41.1546C28.7314 40.4449 28.3322 39.7351 27.9773 39.0254C27.8886 38.8923 27.8442 38.7149 27.7555 38.5375C27.6224 38.5818 27.445 38.6262 27.3119 38.6262C26.6465 38.7592 25.9811 38.848 25.2714 38.981C24.0294 42.308 21.2348 47.8084 17.1537 46.6551C15.6899 46.3002 14.4035 45.2356 13.9599 43.7718C13.3832 42.0418 14.1373 40.1787 15.2907 38.9367C16.4884 37.6503 18.2184 36.9849 19.283 35.5654C21.013 33.17 22.2106 30.198 22.6542 27.2703C22.6986 26.9598 22.6986 26.6493 22.743 26.3388C22.7873 25.496 23.2753 24.5201 24.0294 23.9878C24.7835 23.4998 25.8037 23.6773 26.4691 24.2539C27.5781 25.1411 27.445 26.6937 27.2232 27.9357C26.824 30.1536 26.3804 32.5934 25.9811 34.7226C26.3804 34.6782 26.3804 34.6782 26.5578 34.6339C28.8645 33.7467 30.9937 32.549 32.9011 30.9965C34.0544 30.0649 35.0303 29.0447 35.7844 27.7583C36.228 27.0485 36.5385 26.3388 36.6273 25.496C36.9378 22.1691 32.3688 21.1488 29.8404 21.3262C26.8683 21.548 24.0294 22.2578 21.3678 23.5442C20.9686 23.7216 20.5694 23.8547 20.1258 23.8547C16.8876 23.9878 20.1701 17.2896 20.7468 16.0475C21.5009 14.3619 22.8317 13.1642 24.6947 12.7206C32.5019 10.8132 45.8095 12.8981 44.257 23.766C43.8577 26.6937 42.4826 29.1334 40.5752 31.307C38.0911 34.1016 35.1634 36.0977 31.7921 37.3841C31.8365 37.4728 31.8809 37.5616 31.9252 37.6503C32.4575 38.5375 33.877 39.7795 34.7642 40.2674C36.3611 41.1103 38.0024 41.6869 39.8655 41.5539C41.0188 41.5095 42.1721 41.4651 43.3254 41.4651C45.0111 41.4651 45.8539 42.308 45.9426 44.0379Z"/>
</mask>
<path d="M45.9426 44.0379C45.987 45.3244 45.6765 46.6108 45.2329 47.8084C44.9224 48.5625 44.5675 49.3166 44.1239 50.0264C43.5472 50.9579 42.8375 51.8007 41.6398 52.0669C41.0631 52.2 40.5308 52.2443 39.9542 52.1113C37.3814 51.5346 35.2078 49.2723 33.5665 47.3205C31.9252 45.4131 30.4614 43.3282 29.175 41.1546C28.7314 40.4449 28.3322 39.7351 27.9773 39.0254C27.8886 38.8923 27.8442 38.7149 27.7555 38.5375C27.6224 38.5818 27.445 38.6262 27.3119 38.6262C26.6465 38.7592 25.9811 38.848 25.2714 38.981C24.0294 42.308 21.2348 47.8084 17.1537 46.6551C15.6899 46.3002 14.4035 45.2356 13.9599 43.7718C13.3832 42.0418 14.1373 40.1787 15.2907 38.9367C16.4884 37.6503 18.2184 36.9849 19.283 35.5654C21.013 33.17 22.2106 30.198 22.6542 27.2703C22.6986 26.9598 22.6986 26.6493 22.743 26.3388C22.7873 25.496 23.2753 24.5201 24.0294 23.9878C24.7835 23.4998 25.8037 23.6773 26.4691 24.2539C27.5781 25.1411 27.445 26.6937 27.2232 27.9357C26.824 30.1536 26.3804 32.5934 25.9811 34.7226C26.3804 34.6782 26.3804 34.6782 26.5578 34.6339C28.8645 33.7467 30.9937 32.549 32.9011 30.9965C34.0544 30.0649 35.0303 29.0447 35.7844 27.7583C36.228 27.0485 36.5385 26.3388 36.6273 25.496C36.9378 22.1691 32.3688 21.1488 29.8404 21.3262C26.8683 21.548 24.0294 22.2578 21.3678 23.5442C20.9686 23.7216 20.5694 23.8547 20.1258 23.8547C16.8876 23.9878 20.1701 17.2896 20.7468 16.0475C21.5009 14.3619 22.8317 13.1642 24.6947 12.7206C32.5019 10.8132 45.8095 12.8981 44.257 23.766C43.8577 26.6937 42.4826 29.1334 40.5752 31.307C38.0911 34.1016 35.1634 36.0977 31.7921 37.3841C31.8365 37.4728 31.8809 37.5616 31.9252 37.6503C32.4575 38.5375 33.877 39.7795 34.7642 40.2674C36.3611 41.1103 38.0024 41.6869 39.8655 41.5539C41.0188 41.5095 42.1721 41.4651 43.3254 41.4651C45.0111 41.4651 45.8539 42.308 45.9426 44.0379Z" fill="white"/>
<path d="M45.9426 44.0379L53.705 43.7703L53.7028 43.7052L53.6994 43.6402L45.9426 44.0379ZM45.2329 47.8084L52.4149 50.7657L52.4679 50.6368L52.5164 50.506L45.2329 47.8084ZM44.1239 50.0264L37.5375 45.9099L37.5286 45.924L37.5199 45.9382L44.1239 50.0264ZM41.6398 52.0669L39.9549 44.4848L39.9241 44.4917L39.8933 44.4988L41.6398 52.0669ZM39.9542 52.1113L41.7007 44.5431L41.6768 44.5376L41.6529 44.5323L39.9542 52.1113ZM33.5665 47.3205L39.5111 42.3217L39.4827 42.2879L39.454 42.2545L33.5665 47.3205ZM29.175 41.1546L35.8591 37.1987L35.8112 37.1178L35.7614 37.0381L29.175 41.1546ZM27.9773 39.0254L34.9243 35.5519L34.7081 35.1194L34.4398 34.717L27.9773 39.0254ZM27.7555 38.5375L34.7025 35.0639L31.69 29.0388L25.2994 31.169L27.7555 38.5375ZM27.3119 38.6262V30.8592H26.5428L25.7887 31.01L27.3119 38.6262ZM25.2714 38.981L23.84 31.3471L19.529 32.1554L17.9949 36.2645L25.2714 38.981ZM17.1537 46.6551L19.266 39.1808L19.1255 39.1411L18.9837 39.1067L17.1537 46.6551ZM13.9599 43.7718L21.3931 41.5193L21.3621 41.417L21.3283 41.3157L13.9599 43.7718ZM15.2907 38.9367L9.60604 33.6441L9.59905 33.6516L15.2907 38.9367ZM19.283 35.5654L25.4966 40.2256L25.5386 40.1697L25.5795 40.1129L19.283 35.5654ZM22.6542 27.2703L30.3336 28.4339L30.3385 28.4013L30.3432 28.3687L22.6542 27.2703ZM22.743 26.3388L30.4319 27.4372L30.481 27.0936L30.4992 26.747L22.743 26.3388ZM24.0294 23.9878L19.8099 17.4668L19.6783 17.552L19.5503 17.6424L24.0294 23.9878ZM26.4691 24.2539L21.3822 30.1234L21.4977 30.2235L21.6171 30.3189L26.4691 24.2539ZM27.2232 27.9357L34.8674 29.3117L34.8693 29.3011L27.2232 27.9357ZM25.9811 34.7226L18.3472 33.2912L16.4142 43.6004L26.8389 42.4421L25.9811 34.7226ZM26.5578 34.6339L28.4416 42.169L28.9025 42.0538L29.346 41.8832L26.5578 34.6339ZM32.9011 30.9965L28.0208 24.9542L28.0094 24.9634L27.998 24.9727L32.9011 30.9965ZM35.7844 27.7583L29.198 23.6418L29.1396 23.7352L29.0839 23.8303L35.7844 27.7583ZM36.6273 25.496L44.3516 26.3091L44.3564 26.2634L44.3607 26.2178L36.6273 25.496ZM29.8404 21.3262L29.2966 13.5783L29.2795 13.5795L29.2623 13.5808L29.8404 21.3262ZM21.3678 23.5442L24.5223 30.6418L24.6359 30.5913L24.7478 30.5372L21.3678 23.5442ZM20.1258 23.8547V16.0877H19.9663L19.8069 16.0942L20.1258 23.8547ZM20.7468 16.0475L27.7916 19.3183L27.8145 19.269L27.8367 19.2193L20.7468 16.0475ZM24.6947 12.7206L26.4937 20.2764L26.516 20.2711L26.5381 20.2657L24.6947 12.7206ZM44.257 23.766L36.568 22.6676L36.5645 22.692L36.5612 22.7165L44.257 23.766ZM40.5752 31.307L46.3803 36.4671L46.3968 36.4486L46.4131 36.43L40.5752 31.307ZM31.7921 37.3841L29.0232 30.1275L21.0091 33.1855L24.8451 40.8576L31.7921 37.3841ZM31.9252 37.6503L24.9782 41.1238L25.1116 41.3906L25.2651 41.6464L31.9252 37.6503ZM34.7642 40.2674L31.0211 47.073L31.0797 47.1053L31.1389 47.1365L34.7642 40.2674ZM39.8655 41.5539L39.5669 33.7926L39.4394 33.7975L39.3121 33.8066L39.8655 41.5539ZM45.9426 44.0379L38.1802 44.3056C38.1779 44.2393 38.1875 44.2696 38.1571 44.4204C38.1264 44.5729 38.0647 44.7995 37.9494 45.1109L45.2329 47.8084L52.5164 50.506C53.1541 48.7842 53.797 46.4371 53.705 43.7703L45.9426 44.0379ZM45.2329 47.8084L38.0509 44.8511C37.8323 45.382 37.6665 45.7035 37.5375 45.9099L44.1239 50.0264L50.7103 54.1429C51.4685 52.9298 52.0124 51.7431 52.4149 50.7657L45.2329 47.8084ZM44.1239 50.0264L37.5199 45.9382C37.4002 46.1315 37.5279 45.8759 37.91 45.531C38.3742 45.1119 39.0786 44.6796 39.9549 44.4848L41.6398 52.0669L43.3247 59.649C47.6668 58.684 49.8341 55.5584 50.7279 54.1146L44.1239 50.0264ZM41.6398 52.0669L39.8933 44.4988C39.9236 44.4918 40.1451 44.4417 40.4866 44.4281C40.8523 44.4134 41.2696 44.4437 41.7007 44.5431L39.9542 52.1113L38.2077 59.6794C40.3116 60.1649 42.1102 59.9295 43.3863 59.635L41.6398 52.0669ZM39.9542 52.1113L41.6529 44.5323C41.9884 44.6075 41.8944 44.6857 41.3496 44.2368C40.8261 43.8055 40.2302 43.1768 39.5111 42.3217L33.5665 47.3205L27.6219 52.3193C29.142 54.127 32.8252 58.4731 38.2554 59.6902L39.9542 52.1113ZM33.5665 47.3205L39.454 42.2545C38.145 40.7333 36.9418 39.0282 35.8591 37.1987L29.175 41.1546L22.4909 45.1105C23.9809 47.6282 25.7054 50.0928 27.679 52.3865L33.5665 47.3205ZM29.175 41.1546L35.7614 37.0381C35.4411 36.5256 35.1634 36.0301 34.9243 35.5519L27.9773 39.0254L21.0303 42.4989C21.5009 43.4402 22.0217 44.3642 22.5886 45.2711L29.175 41.1546ZM27.9773 39.0254L34.4398 34.717C34.6886 35.0901 34.8501 35.4091 34.9396 35.5985C34.9859 35.6965 35.0204 35.7758 35.0417 35.8259C35.0626 35.8751 35.0763 35.9095 35.0779 35.9135C35.0789 35.916 35.0788 35.9157 35.0756 35.9076C35.0741 35.9038 35.0664 35.8843 35.0608 35.8703C35.0479 35.8378 35.024 35.7777 34.9947 35.7068C34.9363 35.5652 34.8381 35.3351 34.7025 35.0639L27.7555 38.5375L20.8085 42.011C20.7172 41.8285 20.6579 41.6872 20.6355 41.6329C20.6243 41.6057 20.6177 41.5889 20.6217 41.5992C20.6247 41.6066 20.6254 41.6083 20.6322 41.6257C20.6374 41.6387 20.6456 41.6593 20.6549 41.6827C20.6864 41.7614 20.7736 41.9791 20.8957 42.2374C21.0213 42.5031 21.2217 42.8941 21.5148 43.3338L27.9773 39.0254ZM27.7555 38.5375L25.2994 31.169C25.4583 31.116 25.6597 31.0567 25.9063 31.0038C26.0342 30.9764 26.2084 30.9434 26.4202 30.916C26.6237 30.8896 26.9313 30.8592 27.3119 30.8592V38.6262V46.3932C28.7249 46.3932 29.8635 46.0219 30.2116 45.9059L27.7555 38.5375ZM27.3119 38.6262L25.7887 31.01C25.6038 31.047 25.3925 31.083 25.0518 31.1389C24.7456 31.1891 24.3018 31.2605 23.84 31.3471L25.2714 38.981L26.7028 46.615C26.9508 46.5685 27.1945 46.529 27.5648 46.4683C27.9005 46.4133 28.3546 46.3385 28.8351 46.2424L27.3119 38.6262ZM25.2714 38.981L17.9949 36.2645C17.7675 36.8737 17.4825 37.544 17.1571 38.1717C16.8213 38.8196 16.5184 39.2746 16.2956 39.5437C16.0453 39.8459 16.1268 39.6364 16.642 39.3921C16.9321 39.2546 17.3457 39.1145 17.8572 39.0638C18.3787 39.0121 18.8645 39.0674 19.266 39.1808L17.1537 46.6551L15.0414 54.1294C21.5298 55.9631 26.1602 51.9863 28.2588 49.4526C30.4442 46.8142 31.8168 43.6557 32.5479 41.6976L25.2714 38.981ZM17.1537 46.6551L18.9837 39.1067C19.7772 39.2991 20.9218 39.9641 21.3931 41.5193L13.9599 43.7718L6.52668 46.0243C7.88514 50.5072 11.6026 53.3014 15.3238 54.2035L17.1537 46.6551ZM13.9599 43.7718L21.3283 41.3157C21.645 42.2656 21.5232 43.06 21.3926 43.4796C21.2726 43.8652 21.1101 44.0841 20.9823 44.2218L15.2907 38.9367L9.59905 33.6516C7.29172 36.1364 4.80601 40.8716 6.59147 46.2279L13.9599 43.7718ZM15.2907 38.9367L20.9753 44.2293C20.8926 44.3181 20.8102 44.3558 21.8139 43.6477C22.5281 43.1439 24.1548 42.0146 25.4966 40.2256L19.283 35.5654L13.0694 30.9052C13.3465 30.5357 13.5759 30.4488 12.8595 30.9542C12.6162 31.1259 12.056 31.5117 11.5529 31.8963C11.0045 32.3155 10.3058 32.8925 9.60604 33.6441L15.2907 38.9367ZM19.283 35.5654L25.5795 40.1129C28.0497 36.6926 29.7092 32.5551 30.3336 28.4339L22.6542 27.2703L14.9749 26.1068C14.7121 27.8409 13.9762 29.6475 12.9864 31.0179L19.283 35.5654ZM22.6542 27.2703L30.3432 28.3687C30.3794 28.1149 30.402 27.8938 30.4168 27.7282C30.4309 27.5705 30.4411 27.4242 30.4459 27.3579C30.4522 27.2689 30.4531 27.26 30.4529 27.2624C30.4519 27.2728 30.446 27.3386 30.4319 27.4372L22.743 26.3388L15.054 25.2404C15.0177 25.4942 14.9952 25.7153 14.9804 25.8809C14.9663 26.0386 14.956 26.1849 14.9513 26.2512C14.945 26.3402 14.9441 26.3491 14.9443 26.3467C14.9453 26.3363 14.9512 26.2705 14.9653 26.1719L22.6542 27.2703ZM22.743 26.3388L30.4992 26.747C30.4547 27.5935 30.2203 28.2388 29.9732 28.7019C29.7229 29.1714 29.2796 29.7888 28.5085 30.3332L24.0294 23.9878L19.5503 17.6424C16.7184 19.6413 15.1473 22.8791 14.9867 25.9306L22.743 26.3388ZM24.0294 23.9878L28.2488 30.5087C26.874 31.3983 25.4181 31.5696 24.2948 31.4256C23.2034 31.2857 22.2004 30.8325 21.3822 30.1234L26.4691 24.2539L31.5559 18.3845C28.8641 16.0516 24.0677 14.7117 19.8099 17.4668L24.0294 23.9878ZM26.4691 24.2539L21.6171 30.3189C20.116 29.1181 19.7148 27.5722 19.6323 26.8768C19.5691 26.3441 19.6595 26.1089 19.5771 26.5703L27.2232 27.9357L34.8693 29.3011C35.0086 28.5205 35.2766 26.888 35.0581 25.0466C34.8203 23.0427 33.9311 20.2769 31.3211 18.1889L26.4691 24.2539ZM27.2232 27.9357L19.579 26.5598C19.181 28.7711 18.7413 31.1894 18.3472 33.2912L25.9811 34.7226L33.6151 36.154C34.0195 33.9974 34.4669 31.5362 34.8674 29.3117L27.2232 27.9357ZM25.9811 34.7226L26.8389 42.4421C27.2757 42.3936 27.7206 42.3492 28.4416 42.169L26.5578 34.6339L24.674 27.0988C24.6461 27.1058 24.6498 27.1048 24.658 27.1028C24.67 27.0999 24.7095 27.0903 24.7641 27.0782C24.8224 27.0652 24.8915 27.0508 24.9687 27.0362C25.0454 27.0218 25.1139 27.0104 25.1716 27.0015C25.273 26.9859 25.3379 26.9788 25.3072 26.9824C25.2791 26.9858 25.2335 26.9909 25.1234 27.0031L25.9811 34.7226ZM26.5578 34.6339L29.346 41.8832C32.352 40.7271 35.2083 39.1332 37.8042 37.0203L32.9011 30.9965L27.998 24.9727C26.779 25.9649 25.377 26.7664 23.7696 27.3846L26.5578 34.6339ZM32.9011 30.9965L37.7814 37.0387C39.4412 35.6982 41.1307 33.9965 42.485 31.6862L35.7844 27.7583L29.0839 23.8303C28.93 24.0928 28.6677 24.4317 28.0208 24.9542L32.9011 30.9965ZM35.7844 27.7583L42.3709 31.8748C43.2053 30.5397 44.1002 28.6975 44.3516 26.3091L36.6273 25.496L28.9029 24.6829C28.9359 24.3696 29.0124 24.0877 29.098 23.8671C29.1762 23.6655 29.2381 23.5777 29.198 23.6418L35.7844 27.7583ZM36.6273 25.496L44.3607 26.2178C44.9553 19.8466 40.4092 16.35 37.527 15.0328C34.7124 13.7464 31.598 13.4168 29.2966 13.5783L29.8404 21.3262L30.3841 29.0742C30.3682 29.0753 30.41 29.0719 30.5018 29.0763C30.5906 29.0805 30.695 29.0905 30.803 29.1075C31.0542 29.1471 31.1426 29.1944 31.0699 29.1612C31.032 29.1439 30.4501 28.8831 29.8591 28.1018C29.5439 27.6852 29.2521 27.1508 29.0678 26.5142C28.8826 25.8744 28.8473 25.2733 28.8939 24.7742L36.6273 25.496ZM29.8404 21.3262L29.2623 13.5808C25.4152 13.8679 21.612 14.7995 17.9879 16.5512L21.3678 23.5442L24.7478 30.5372C26.4467 29.7161 28.3214 29.2282 30.4184 29.0717L29.8404 21.3262ZM21.3678 23.5442L18.2134 16.4466C18.2181 16.4445 18.4173 16.3544 18.737 16.268C19.0788 16.1756 19.5547 16.0877 20.1258 16.0877V23.8547V31.6217C22.1615 31.6217 23.7289 30.9944 24.5223 30.6418L21.3678 23.5442ZM20.1258 23.8547L19.8069 16.0942C20.7116 16.057 22.3959 16.2369 24.0107 17.5113C25.598 18.7639 26.1695 20.3273 26.3604 21.1931C26.5393 22.0044 26.4749 22.553 26.4687 22.6103C26.4567 22.7199 26.4512 22.6885 26.5059 22.4852C26.7813 21.4618 27.4015 20.1584 27.7916 19.3183L20.7468 16.0475L13.7021 12.7768C13.5154 13.1787 12.206 15.8454 11.5055 18.4484C11.2148 19.5288 10.6217 21.9571 11.1908 24.5381C11.5203 26.0326 12.3622 28.1072 14.3875 29.7055C16.4403 31.3255 18.7304 31.6856 20.4447 31.6152L20.1258 23.8547ZM20.7468 16.0475L27.8367 19.2193C27.7944 19.3138 27.6586 19.5592 27.3596 19.8155C27.0489 20.0818 26.7214 20.2222 26.4937 20.2764L24.6947 12.7206L22.8957 5.16483C18.4991 6.21164 15.3172 9.16459 13.6569 12.8758L20.7468 16.0475ZM24.6947 12.7206L26.5381 20.2657C29.1842 19.6192 32.7719 19.7336 35.1045 20.6654C36.1756 21.0932 36.4885 21.4927 36.5294 21.5528C36.5428 21.5726 36.5626 21.601 36.5825 21.6953C36.6048 21.8012 36.6489 22.1014 36.568 22.6676L44.257 23.766L51.9459 24.8644C52.576 20.4541 51.7358 16.2917 49.3771 12.8212C47.1155 9.4934 43.9046 7.45313 40.867 6.23972C34.9821 3.88893 28.0124 3.9146 22.8513 5.17554L24.6947 12.7206ZM44.257 23.766L36.5612 22.7165C36.4239 23.7235 35.9518 24.7999 34.7373 26.1839L40.5752 31.307L46.4131 36.43C49.0134 33.4669 51.2916 29.6638 51.9528 24.8154L44.257 23.766ZM40.5752 31.307L34.7701 26.1468C33.1203 28.0028 31.2363 29.283 29.0232 30.1275L31.7921 37.3841L34.5611 44.6408C39.0905 42.9125 43.0619 40.2004 46.3803 36.4671L40.5752 31.307ZM31.7921 37.3841L24.8451 40.8576C24.8895 40.9463 24.9338 41.0351 24.9782 41.1238L31.9252 37.6503L38.8722 34.1767C38.8279 34.088 38.7836 33.9994 38.7392 33.9107L31.7921 37.3841ZM31.9252 37.6503L25.2651 41.6464C26.1121 43.0582 27.2558 44.1931 27.9959 44.8638C28.788 45.5817 29.8632 46.4362 31.0211 47.073L34.7642 40.2674L38.5073 33.4619C38.6151 33.5212 38.677 33.5618 38.6896 33.5701C38.7056 33.5807 38.6989 33.5769 38.671 33.556C38.6442 33.536 38.607 33.5071 38.5624 33.4702C38.518 33.4336 38.4721 33.3939 38.4273 33.3533C38.3824 33.3126 38.344 33.2759 38.3137 33.2456C38.2988 33.2307 38.2872 33.2187 38.2789 33.2099C38.2705 33.201 38.2665 33.1966 38.2666 33.1967C38.2667 33.1968 38.2726 33.2034 38.2835 33.2166C38.2943 33.2296 38.3126 33.252 38.3369 33.2838C38.361 33.3154 38.3944 33.3607 38.4348 33.4193C38.4748 33.4775 38.5265 33.5561 38.5854 33.6542L31.9252 37.6503ZM34.7642 40.2674L31.1389 47.1365C33.36 48.3088 36.5111 49.5803 40.4188 49.3011L39.8655 41.5539L39.3121 33.8066C39.3695 33.8025 39.3831 33.8176 39.2836 33.7901C39.1515 33.7536 38.8792 33.6569 38.3895 33.3984L34.7642 40.2674ZM39.8655 41.5539L40.164 49.3151C41.3423 49.2698 42.3463 49.2322 43.3254 49.2322V41.4651V33.6981C41.9979 33.6981 40.6953 33.7492 39.5669 33.7926L39.8655 41.5539ZM43.3254 41.4651V49.2322C42.9372 49.2322 41.2877 49.1222 39.7763 47.6302C38.3186 46.1912 38.1967 44.6482 38.1858 44.4357L45.9426 44.0379L53.6994 43.6402C53.5998 41.6977 53.0121 38.8683 50.6894 36.5754C48.3131 34.2295 45.3993 33.6981 43.3254 33.6981V41.4651Z" fill="white" mask="url(#path-2-outside-1_2026_309)"/>
<path d="M32.5287 54.1712C31.7527 54.7945 30.6417 54.7944 29.8656 54.1712L29.7045 54.0277L7.61173 32.3158C6.76277 31.4815 6.76277 30.113 7.61173 29.2787L29.7045 7.56578C30.5327 6.752 31.8606 6.7522 32.6889 7.56578L54.7826 29.2787C55.6315 30.113 55.6316 31.4815 54.7826 32.3158L32.6889 54.0277L32.5287 54.1712Z" fill="#B87333" stroke="#89490D" stroke-width="2.71077"/>
<mask id="path-5-outside-2_2026_309" maskUnits="userSpaceOnUse" x="10.4406" y="8.74384" width="39" height="47" fill="black">
<rect fill="white" x="10.4406" y="8.74384" width="39" height="47"/>
<path d="M45.9426 44.0379C45.987 45.3244 45.6765 46.6108 45.2329 47.8084C44.9224 48.5625 44.5675 49.3166 44.1239 50.0264C43.5472 50.9579 42.8375 51.8007 41.6398 52.0669C41.0631 52.2 40.5308 52.2443 39.9542 52.1113C37.3814 51.5346 35.2078 49.2723 33.5665 47.3205C31.9252 45.4131 30.4614 43.3282 29.175 41.1546C28.7314 40.4449 28.3322 39.7351 27.9773 39.0254C27.8886 38.8923 27.8442 38.7149 27.7555 38.5375C27.6224 38.5818 27.445 38.6262 27.3119 38.6262C26.6465 38.7592 25.9811 38.848 25.2714 38.981C24.0294 42.308 21.2348 47.8084 17.1537 46.6551C15.6899 46.3002 14.4035 45.2356 13.9599 43.7718C13.3832 42.0418 14.1373 40.1787 15.2907 38.9367C16.4884 37.6503 18.2184 36.9849 19.283 35.5654C21.013 33.17 22.2106 30.198 22.6542 27.2703C22.6986 26.9598 22.6986 26.6493 22.743 26.3388C22.7873 25.496 23.2753 24.5201 24.0294 23.9878C24.7835 23.4998 25.8037 23.6773 26.4691 24.2539C27.5781 25.1411 27.445 26.6937 27.2232 27.9357C26.824 30.1536 26.3804 32.5934 25.9811 34.7226C26.3804 34.6782 26.3804 34.6782 26.5578 34.6339C28.8645 33.7467 30.9937 32.549 32.9011 30.9965C34.0544 30.0649 35.0303 29.0447 35.7844 27.7583C36.228 27.0485 36.5385 26.3388 36.6273 25.496C36.9378 22.1691 32.3688 21.1488 29.8404 21.3262C26.8683 21.548 24.0294 22.2578 21.3678 23.5442C20.9686 23.7216 20.5694 23.8547 20.1258 23.8547C16.8876 23.9878 20.1701 17.2896 20.7468 16.0475C21.5009 14.3619 22.8317 13.1642 24.6947 12.7206C32.5019 10.8132 45.8095 12.8981 44.257 23.766C43.8577 26.6937 42.4826 29.1334 40.5752 31.307C38.0911 34.1016 35.1634 36.0977 31.7921 37.3841C31.8365 37.4728 31.8809 37.5616 31.9252 37.6503C32.4575 38.5375 33.877 39.7795 34.7642 40.2674C36.3611 41.1103 38.0024 41.6869 39.8655 41.5539C41.0188 41.5095 42.1721 41.4651 43.3254 41.4651C45.0111 41.4651 45.8539 42.308 45.9426 44.0379Z"/>
</mask>
<path d="M45.9426 44.0379C45.987 45.3244 45.6765 46.6108 45.2329 47.8084C44.9224 48.5625 44.5675 49.3166 44.1239 50.0264C43.5472 50.9579 42.8375 51.8007 41.6398 52.0669C41.0631 52.2 40.5308 52.2443 39.9542 52.1113C37.3814 51.5346 35.2078 49.2723 33.5665 47.3205C31.9252 45.4131 30.4614 43.3282 29.175 41.1546C28.7314 40.4449 28.3322 39.7351 27.9773 39.0254C27.8886 38.8923 27.8442 38.7149 27.7555 38.5375C27.6224 38.5818 27.445 38.6262 27.3119 38.6262C26.6465 38.7592 25.9811 38.848 25.2714 38.981C24.0294 42.308 21.2348 47.8084 17.1537 46.6551C15.6899 46.3002 14.4035 45.2356 13.9599 43.7718C13.3832 42.0418 14.1373 40.1787 15.2907 38.9367C16.4884 37.6503 18.2184 36.9849 19.283 35.5654C21.013 33.17 22.2106 30.198 22.6542 27.2703C22.6986 26.9598 22.6986 26.6493 22.743 26.3388C22.7873 25.496 23.2753 24.5201 24.0294 23.9878C24.7835 23.4998 25.8037 23.6773 26.4691 24.2539C27.5781 25.1411 27.445 26.6937 27.2232 27.9357C26.824 30.1536 26.3804 32.5934 25.9811 34.7226C26.3804 34.6782 26.3804 34.6782 26.5578 34.6339C28.8645 33.7467 30.9937 32.549 32.9011 30.9965C34.0544 30.0649 35.0303 29.0447 35.7844 27.7583C36.228 27.0485 36.5385 26.3388 36.6273 25.496C36.9378 22.1691 32.3688 21.1488 29.8404 21.3262C26.8683 21.548 24.0294 22.2578 21.3678 23.5442C20.9686 23.7216 20.5694 23.8547 20.1258 23.8547C16.8876 23.9878 20.1701 17.2896 20.7468 16.0475C21.5009 14.3619 22.8317 13.1642 24.6947 12.7206C32.5019 10.8132 45.8095 12.8981 44.257 23.766C43.8577 26.6937 42.4826 29.1334 40.5752 31.307C38.0911 34.1016 35.1634 36.0977 31.7921 37.3841C31.8365 37.4728 31.8809 37.5616 31.9252 37.6503C32.4575 38.5375 33.877 39.7795 34.7642 40.2674C36.3611 41.1103 38.0024 41.6869 39.8655 41.5539C41.0188 41.5095 42.1721 41.4651 43.3254 41.4651C45.0111 41.4651 45.8539 42.308 45.9426 44.0379Z" fill="white"/>
<path d="M45.9426 44.0379L48.6518 43.9445L48.651 43.9218L48.6498 43.8991L45.9426 44.0379ZM45.2329 47.8084L47.7395 48.8406L47.758 48.7956L47.7749 48.7499L45.2329 47.8084ZM44.1239 50.0264L41.8251 48.5897L41.819 48.5996L44.1239 50.0264ZM41.6398 52.0669L41.0518 49.4207L41.041 49.4231L41.0303 49.4255L41.6398 52.0669ZM39.9542 52.1113L40.5637 49.4699L40.5554 49.468L40.547 49.4661L39.9542 52.1113ZM33.5665 47.3205L35.6412 45.5758L35.6313 45.5641L35.6213 45.5524L33.5665 47.3205ZM29.175 41.1546L31.5078 39.774L31.4911 39.7457L31.4737 39.7179L29.175 41.1546ZM27.9773 39.0254L30.4019 37.8131L30.3264 37.6622L30.2328 37.5217L27.9773 39.0254ZM27.7555 38.5375L30.1801 37.3252L29.1287 35.2223L26.8983 35.9658L27.7555 38.5375ZM27.3119 38.6262V35.9154H27.0435L26.7803 35.968L27.3119 38.6262ZM25.2714 38.981L24.7718 36.3167L23.2672 36.5988L22.7318 38.0329L25.2714 38.981ZM17.1537 46.6551L17.891 44.0465L17.8419 44.0327L17.7924 44.0207L17.1537 46.6551ZM13.9599 43.7718L16.5542 42.9857L16.5434 42.95L16.5316 42.9146L13.9599 43.7718ZM15.2907 38.9367L13.3067 37.0895L13.3042 37.0921L15.2907 38.9367ZM19.283 35.5654L21.4516 37.1919L21.4662 37.1723L21.4805 37.1525L19.283 35.5654ZM22.6542 27.2703L25.3344 27.6764L25.3361 27.665L25.3378 27.6537L22.6542 27.2703ZM22.743 26.3388L25.4265 26.7221L25.4436 26.6022L25.45 26.4813L22.743 26.3388ZM24.0294 23.9878L22.5567 21.7119L22.5108 21.7416L22.4661 21.7732L24.0294 23.9878ZM26.4691 24.2539L24.6937 26.3024L24.734 26.3374L24.7757 26.3707L26.4691 24.2539ZM27.2232 27.9357L29.8911 28.4159L29.8917 28.4122L27.2232 27.9357ZM25.9811 34.7226L23.3168 34.223L22.6422 37.821L26.2805 37.4168L25.9811 34.7226ZM26.5578 34.6339L27.2153 37.2637L27.3761 37.2235L27.5309 37.164L26.5578 34.6339ZM32.9011 30.9965L31.1978 28.8876L31.1899 28.8941L32.9011 30.9965ZM35.7844 27.7583L33.4857 26.3216L33.4653 26.3542L33.4459 26.3874L35.7844 27.7583ZM36.6273 25.496L39.3231 25.7797L39.3248 25.7638L39.3263 25.7479L36.6273 25.496ZM29.8404 21.3262L29.6506 18.6221L29.6386 18.623L29.8404 21.3262ZM21.3678 23.5442L22.4688 26.0213L22.5084 26.0037L22.5475 25.9848L21.3678 23.5442ZM20.1258 23.8547V21.1439H20.0701L20.0145 21.1462L20.1258 23.8547ZM20.7468 16.0475L23.2055 17.1891L23.2135 17.1719L23.2212 17.1545L20.7468 16.0475ZM24.6947 12.7206L25.3226 15.3577L25.3304 15.3558L25.3381 15.3539L24.6947 12.7206ZM44.257 23.766L41.5734 23.3826L41.5722 23.3912L41.5711 23.3997L44.257 23.766ZM40.5752 31.307L42.6012 33.1079L42.607 33.1015L42.6127 33.095L40.5752 31.307ZM31.7921 37.3841L30.8257 34.8515L28.0287 35.9187L29.3676 38.5964L31.7921 37.3841ZM31.9252 37.6503L29.5006 38.8626L29.5472 38.9557L29.6008 39.045L31.9252 37.6503ZM34.7642 40.2674L33.4578 42.6427L33.4783 42.6539L33.4989 42.6648L34.7642 40.2674ZM39.8655 41.5539L39.7613 38.8451L39.7168 38.8468L39.6723 38.85L39.8655 41.5539ZM45.9426 44.0379L43.2334 44.1314C43.2612 44.936 43.0667 45.8522 42.6908 46.867L45.2329 47.8084L47.7749 48.7499C48.2862 47.3693 48.7127 45.7127 48.6518 43.9445L45.9426 44.0379ZM45.2329 47.8084L42.7263 46.7763C42.4478 47.4525 42.159 48.0556 41.8252 48.5897L44.1239 50.0264L46.4226 51.4631C46.976 50.5777 47.3969 49.6726 47.7395 48.8406L45.2329 47.8084ZM44.1239 50.0264L41.819 48.5996C41.5896 48.9702 41.4248 49.1698 41.2982 49.284C41.2003 49.3724 41.1357 49.402 41.0518 49.4207L41.6398 52.0669L42.2279 54.7131C44.523 54.2031 45.7414 52.5635 46.4288 51.4532L44.1239 50.0264ZM41.6398 52.0669L41.0303 49.4255C40.8531 49.4664 40.75 49.4778 40.6886 49.4803C40.6358 49.4824 40.601 49.4785 40.5637 49.4699L39.9542 52.1113L39.3446 54.7526C40.4543 55.0087 41.4286 54.8977 42.2493 54.7082L41.6398 52.0669ZM39.9542 52.1113L40.547 49.4661C38.9715 49.113 37.3248 47.5779 35.6412 45.5758L33.5665 47.3205L31.4918 49.0652C33.0908 50.9666 35.7912 53.9562 39.3613 54.7564L39.9542 52.1113ZM33.5665 47.3205L35.6213 45.5524C34.096 43.7798 32.7231 41.8275 31.5078 39.774L29.175 41.1546L26.8422 42.5353C28.1996 44.829 29.7544 47.0463 31.5117 49.0886L33.5665 47.3205ZM29.175 41.1546L31.4737 39.7179C31.0731 39.077 30.7163 38.4421 30.4019 37.8131L27.9773 39.0254L25.5527 40.2377C25.948 41.0282 26.3896 41.8128 26.8762 42.5913L29.175 41.1546ZM27.9773 39.0254L30.2328 37.5217C30.3052 37.6303 30.3489 37.7182 30.3684 37.7594C30.3867 37.7982 30.3947 37.8199 30.3833 37.7913C30.3766 37.7745 30.3736 37.7668 30.361 37.735C30.3509 37.7097 30.3369 37.6747 30.3209 37.6357C30.2887 37.5579 30.2418 37.4487 30.1801 37.3252L27.7555 38.5375L25.3309 39.7498C25.3135 39.715 25.3054 39.6945 25.3093 39.704C25.3208 39.7318 25.3171 39.7238 25.3495 39.8048C25.3713 39.8594 25.4126 39.9615 25.467 40.0765C25.5225 40.194 25.6051 40.354 25.7218 40.5291L27.9773 39.0254ZM27.7555 38.5375L26.8983 35.9658C26.9105 35.9617 26.9302 35.9555 26.9657 35.9479C26.9851 35.9437 27.0206 35.9367 27.0702 35.9303C27.1168 35.9242 27.2007 35.9154 27.3119 35.9154V38.6262V41.3369C27.8917 41.3369 28.4046 41.1785 28.6127 41.1091L27.7555 38.5375ZM27.3119 38.6262L26.7803 35.968C26.4992 36.0243 26.2089 36.073 25.8698 36.1285C25.5427 36.1822 25.164 36.2432 24.7718 36.3167L25.2714 38.981L25.771 41.6454C26.0885 41.5858 26.3974 41.536 26.7468 41.4787C27.0842 41.4234 27.4592 41.3612 27.8435 41.2843L27.3119 38.6262ZM25.2714 38.981L22.7318 38.0329C22.1492 39.5936 21.2669 41.4683 20.1895 42.769C19.0819 44.1063 18.3791 44.1845 17.891 44.0465L17.1537 46.6551L16.4165 49.2637C20.0094 50.2791 22.7444 48.1837 24.3648 46.2273C26.0155 44.2344 27.1515 41.6954 27.811 39.9291L25.2714 38.981ZM17.1537 46.6551L17.7924 44.0207C17.1164 43.8568 16.6785 43.3958 16.5542 42.9857L13.9599 43.7718L11.3656 44.5579C12.1285 47.0755 14.2634 48.7437 16.5151 49.2896L17.1537 46.6551ZM13.9599 43.7718L16.5316 42.9146C16.3768 42.4502 16.5265 41.5895 17.2771 40.7812L15.2907 38.9367L13.3042 37.0921C11.7481 38.7679 10.3897 41.6334 11.3882 44.629L13.9599 43.7718ZM15.2907 38.9367L17.2747 40.7839C17.6356 40.3961 18.0833 40.0916 18.8993 39.516C19.6142 39.0117 20.6368 38.2783 21.4516 37.1919L19.283 35.5654L17.1143 33.939C16.8646 34.272 16.4898 34.581 15.7741 35.0859C15.1595 35.5194 14.1434 36.1908 13.3067 37.0895L15.2907 38.9367ZM19.283 35.5654L21.4805 37.1525C23.4689 34.3995 24.8277 31.0207 25.3344 27.6764L22.6542 27.2703L19.9741 26.8642C19.5936 29.3753 18.557 31.9406 17.0854 33.9783L19.283 35.5654ZM22.6542 27.2703L25.3378 27.6537C25.3757 27.3881 25.3925 27.1375 25.4025 26.9977C25.4147 26.827 25.4201 26.767 25.4265 26.7221L22.743 26.3388L20.0594 25.9554C20.0215 26.221 20.0047 26.4716 19.9947 26.6114C19.9825 26.7821 19.9771 26.8421 19.9707 26.887L22.6542 27.2703ZM22.743 26.3388L25.45 26.4813C25.449 26.5 25.4477 26.4884 25.4587 26.4507C25.4693 26.4142 25.487 26.3691 25.5119 26.3225C25.5367 26.2759 25.5623 26.2399 25.5825 26.2161C25.6029 26.1921 25.6089 26.1909 25.5926 26.2024L24.0294 23.9878L22.4661 21.7732C20.9869 22.8173 20.1209 24.5827 20.0359 26.1963L22.743 26.3388ZM24.0294 23.9878L25.502 26.2636C25.2676 26.4153 25.0483 26.4245 24.9378 26.4104C24.8384 26.3976 24.7627 26.3622 24.6937 26.3024L26.4691 24.2539L28.2445 22.2054C26.8718 21.0158 24.5337 20.4327 22.5567 21.7119L24.0294 23.9878ZM26.4691 24.2539L24.7757 26.3707C24.7178 26.3244 24.6703 26.2601 24.6452 26.2083C24.6263 26.1692 24.6414 26.1811 24.6533 26.2811C24.6654 26.383 24.6693 26.535 24.6525 26.7481C24.6358 26.9597 24.602 27.1939 24.5546 27.4592L27.2232 27.9357L29.8917 28.4122C30.0126 27.7355 30.1638 26.7109 30.0371 25.6424C29.9036 24.517 29.4344 23.1547 28.1625 22.1372L26.4691 24.2539ZM27.2232 27.9357L24.5553 27.4555C24.1565 29.6711 23.7142 32.1034 23.3168 34.223L25.9811 34.7226L28.6455 35.2222C29.0465 33.0834 29.4914 30.6362 29.8911 28.4159L27.2232 27.9357ZM25.9811 34.7226L26.2805 37.4168C26.6928 37.371 26.8481 37.3555 27.2153 37.2637L26.5578 34.6339L25.9004 32.004C25.8762 32.0101 25.8648 32.0129 25.8561 32.015C25.8487 32.0168 25.8521 32.016 25.8609 32.014C25.8879 32.008 25.9175 32.0025 25.9405 31.999C25.9524 31.9972 25.9471 31.9983 25.898 32.0041C25.8498 32.0097 25.7852 32.0169 25.6818 32.0284L25.9811 34.7226ZM26.5578 34.6339L27.5309 37.164C30.0816 36.1829 32.4646 34.847 34.6123 33.0988L32.9011 30.9965L31.1899 28.8941C29.5227 30.2511 27.6473 31.3105 25.5847 32.1038L26.5578 34.6339ZM32.9011 30.9965L34.6044 33.1053C35.9345 32.031 37.1594 30.7729 38.123 29.1292L35.7844 27.7583L33.4459 26.3874C32.9013 27.3164 32.1744 28.0989 31.1978 28.8876L32.9011 30.9965ZM35.7844 27.7583L38.0832 29.195C38.6632 28.267 39.1776 27.162 39.3231 25.7797L36.6273 25.496L33.9314 25.2122C33.8994 25.5156 33.7929 25.8301 33.4857 26.3216L35.7844 27.7583ZM36.6273 25.496L39.3263 25.7479C39.6349 22.4414 37.3552 20.5136 35.4252 19.6315C33.5189 18.7602 31.2768 18.508 29.6506 18.6221L29.8404 21.3262L30.0301 24.0304C30.9324 23.967 32.239 24.1362 33.1716 24.5625C33.6204 24.7676 33.8216 24.959 33.8915 25.0514C33.9178 25.0862 33.9413 25.1038 33.9282 25.2441L36.6273 25.496ZM29.8404 21.3262L29.6386 18.623C26.3612 18.8676 23.1857 19.6547 20.1882 21.1035L21.3678 23.5442L22.5475 25.9848C24.873 24.8608 27.3755 24.2285 30.0421 24.0295L29.8404 21.3262ZM21.3678 23.5442L20.2669 21.067C20.1386 21.1241 20.0782 21.1432 20.0562 21.1491C20.0419 21.1529 20.0708 21.1439 20.1258 21.1439V23.8547V26.5655C21.125 26.5655 21.932 26.2599 22.4688 26.0213L21.3678 23.5442ZM20.1258 23.8547L20.0145 21.1462C20.0668 21.1441 20.4574 21.1482 20.8784 21.4804C21.2898 21.8051 21.4013 22.1844 21.4228 22.2819C21.4344 22.3346 21.3957 22.0171 21.6234 21.1712C22.0371 19.6337 22.8817 17.8866 23.2055 17.1891L20.7468 16.0475L18.2881 14.906C18.0353 15.4506 16.9502 17.6735 16.3881 19.7623C16.1278 20.7296 15.8396 22.1393 16.1284 23.4493C16.2886 24.1755 16.6704 25.066 17.5198 25.7363C18.3788 26.4143 19.3753 26.5986 20.2371 26.5632L20.1258 23.8547ZM20.7468 16.0475L23.2212 17.1545C23.6591 16.1758 24.3438 15.5907 25.3226 15.3577L24.6947 12.7206L24.0669 10.0836C21.3196 10.7377 19.3427 12.548 18.2724 14.9406L20.7468 16.0475ZM24.6947 12.7206L25.3381 15.3539C28.8028 14.5075 33.4913 14.5763 36.9802 15.9699C38.6914 16.6535 39.9475 17.587 40.7112 18.7107C41.4411 19.7846 41.8772 21.2566 41.5734 23.3826L44.257 23.766L46.9405 24.1493C47.4131 20.8414 46.7679 17.9773 45.1952 15.6633C43.6564 13.3991 41.3889 11.8929 38.9913 10.9352C34.2627 9.04629 28.3938 9.02638 24.0514 10.0873L24.6947 12.7206ZM44.257 23.766L41.5711 23.3997C41.2632 25.657 40.2033 27.621 38.5377 29.519L40.5752 31.307L42.6127 33.095C44.7619 30.6458 46.4522 27.7303 46.9429 24.1322L44.257 23.766ZM40.5752 31.307L38.5491 29.506C36.3563 31.973 33.7928 33.7193 30.8257 34.8515L31.7921 37.3841L32.7586 39.9168C36.534 38.4761 39.8259 36.2301 42.6012 33.1079L40.5752 31.307ZM31.7921 37.3841L29.3676 38.5964C29.4119 38.6851 29.4563 38.7739 29.5006 38.8626L31.9252 37.6503L34.3498 36.438C34.3055 36.3493 34.2611 36.2606 34.2167 36.1718L31.7921 37.3841ZM31.9252 37.6503L29.6008 39.045C30.0697 39.8265 30.7865 40.5691 31.3913 41.1172C32.0143 41.6818 32.7649 42.2616 33.4578 42.6427L34.7642 40.2674L36.0706 37.8922C35.8763 37.7854 35.4736 37.5002 35.032 37.0999C34.5722 36.6833 34.3131 36.3613 34.2497 36.2556L31.9252 37.6503ZM34.7642 40.2674L33.4989 42.6648C35.3137 43.6226 37.4819 44.4418 40.0586 44.2577L39.8655 41.5539L39.6723 38.85C38.5229 38.9321 37.4085 38.5979 36.0295 37.8701L34.7642 40.2674ZM39.8655 41.5539L39.9696 44.2626C41.1317 44.2179 42.2329 44.1759 43.3254 44.1759V41.4651V38.7544C42.1113 38.7544 40.9059 38.8011 39.7613 38.8451L39.8655 41.5539ZM43.3254 41.4651V44.1759C43.4242 44.1759 43.4922 44.1821 43.534 44.1881C43.5755 44.1941 43.5864 44.1991 43.5741 44.195C43.5609 44.1905 43.5259 44.1773 43.4782 44.1487C43.4296 44.1196 43.3777 44.0805 43.3285 44.0319C43.2794 43.9835 43.2433 43.9358 43.2188 43.8965C43.195 43.8581 43.1867 43.8352 43.1873 43.8369C43.1882 43.8393 43.1975 43.8657 43.2081 43.9229C43.2187 43.9804 43.2296 44.0635 43.2354 44.1768L45.9426 44.0379L48.6498 43.8991C48.5862 42.6581 48.2295 41.2519 47.1373 40.1737C46.0263 39.077 44.5979 38.7544 43.3254 38.7544V41.4651Z" fill="#89490D" mask="url(#path-5-outside-2_2026_309)"/>
</svg>
