<svg width="60" height="58" viewBox="0 0 60 58" fill="none" xmlns="http://www.w3.org/2000/svg">
<path d="M26.2207 6.17552C27.6041 2.96308 32.0601 2.8623 33.6357 5.87376L33.7793 6.17552L39.1387 18.6208L52.6318 19.8728C56.227 20.2062 57.6804 24.6783 54.9678 27.0613L44.7861 36.0046L47.7666 49.2243C48.5601 52.7464 44.7558 55.5101 41.6514 53.6667L30 46.7468L18.3486 53.6667C15.2442 55.5101 11.4399 52.7464 12.2334 49.2243L15.2129 36.0046L5.03223 27.0613C2.31965 24.6783 3.77297 20.2062 7.36816 19.8728L20.8604 18.6208L26.2207 6.17552Z" fill="url(#paint0_linear_2020_147)" stroke="white" stroke-width="6.96123"/>
<mask id="path-2-outside-1_2020_147" maskUnits="userSpaceOnUse" x="10.8905" y="8" width="40" height="44" fill="black">
<rect fill="white" x="10.8905" y="8" width="40" height="44"/>
<path d="M25.4945 34.9384V35.3098C25.4945 37.798 26.7572 38.6893 31.028 38.6893C35.1875 38.6893 36.3016 37.7609 36.3016 36.2382C36.3016 34.6042 35.2989 33.3787 29.7282 32.6359C21.0009 31.4104 18.5127 28.4765 18.5127 23.76C18.5127 19.1178 22.3007 15.6269 30.5453 15.6269C39.4954 15.6269 42.7635 18.635 42.7635 23.3886C42.7635 23.8714 42.7264 24.3914 42.6892 24.9484C41.9094 24.9113 40.6838 24.8741 39.4211 24.8741C38.1585 24.8741 36.8586 24.9113 36.0788 24.9484C36.1159 24.6885 36.1159 24.3914 36.1159 24.1685C36.1159 22.5716 35.076 21.4575 30.3224 21.4575C26.7201 21.4575 25.6431 22.3488 25.6431 23.7229C25.6431 24.9856 26.3116 26.2482 32.2536 27.0653C40.1268 28.1794 43.1349 30.8162 43.1349 35.9783C43.1349 41.029 39.5697 44.5199 31.0652 44.5199C21.8551 44.5199 18.2899 41.5861 18.2899 36.6096C18.2899 36.0154 18.327 35.4584 18.4013 34.827C19.1812 34.9756 20.481 35.0498 21.7808 35.0498C23.192 35.0498 24.4918 35.0127 25.4945 34.9384Z"/>
</mask>
<path d="M25.4945 34.9384V35.3098C25.4945 37.798 26.7572 38.6893 31.028 38.6893C35.1875 38.6893 36.3016 37.7609 36.3016 36.2382C36.3016 34.6042 35.2989 33.3787 29.7282 32.6359C21.0009 31.4104 18.5127 28.4765 18.5127 23.76C18.5127 19.1178 22.3007 15.6269 30.5453 15.6269C39.4954 15.6269 42.7635 18.635 42.7635 23.3886C42.7635 23.8714 42.7264 24.3914 42.6892 24.9484C41.9094 24.9113 40.6838 24.8741 39.4211 24.8741C38.1585 24.8741 36.8586 24.9113 36.0788 24.9484C36.1159 24.6885 36.1159 24.3914 36.1159 24.1685C36.1159 22.5716 35.076 21.4575 30.3224 21.4575C26.7201 21.4575 25.6431 22.3488 25.6431 23.7229C25.6431 24.9856 26.3116 26.2482 32.2536 27.0653C40.1268 28.1794 43.1349 30.8162 43.1349 35.9783C43.1349 41.029 39.5697 44.5199 31.0652 44.5199C21.8551 44.5199 18.2899 41.5861 18.2899 36.6096C18.2899 36.0154 18.327 35.4584 18.4013 34.827C19.1812 34.9756 20.481 35.0498 21.7808 35.0498C23.192 35.0498 24.4918 35.0127 25.4945 34.9384Z" fill="white"/>
<path d="M25.4945 34.9384H32.4558V27.4425L24.9803 27.9962L25.4945 34.9384ZM29.7282 32.6359L28.7602 39.5295L28.7842 39.5329L28.8082 39.5361L29.7282 32.6359ZM42.6892 24.9484L42.3581 31.9018L49.1807 32.2266L49.6351 25.4115L42.6892 24.9484ZM36.0788 24.9484L29.1875 23.9639L27.9962 32.3024L36.4099 31.9018L36.0788 24.9484ZM32.2536 27.0653L33.2289 20.1727L33.2154 20.1708L33.2018 20.1689L32.2536 27.0653ZM18.4013 34.827L19.7038 27.9887L12.3611 26.5901L11.4877 34.0137L18.4013 34.827ZM25.4945 34.9384H18.5333V35.3098H25.4945H32.4558V34.9384H25.4945ZM25.4945 35.3098H18.5333C18.5333 37.7775 19.2547 41.5008 22.9558 43.8267C25.6504 45.52 28.8697 45.6506 31.028 45.6506V38.6893V31.7281C30.1609 31.7281 29.712 31.6797 29.5303 31.6488C29.3299 31.6146 29.7435 31.6489 30.3636 32.0386C31.1185 32.513 31.7796 33.2617 32.1605 34.1537C32.4784 34.8982 32.4558 35.4072 32.4558 35.3098H25.4945ZM31.028 38.6893V45.6506C33.3055 45.6506 36.0899 45.4525 38.48 44.1879C39.8539 43.461 41.1995 42.3298 42.1294 40.677C43.0365 39.0647 43.2628 37.4626 43.2628 36.2382H36.3016H29.3404C29.3404 35.7752 29.4274 34.8601 29.9956 33.8502C30.5866 32.7997 31.3937 32.1861 31.9692 31.8817C32.4648 31.6194 32.7364 31.6098 32.5018 31.6475C32.2924 31.6812 31.8354 31.7281 31.028 31.7281V38.6893ZM36.3016 36.2382H43.2628C43.2628 35.1199 43.0909 33.5645 42.2638 31.9369C41.4197 30.2757 40.1668 29.0747 38.8449 28.2323C36.5305 26.7574 33.5765 26.1262 30.6482 25.7357L29.7282 32.6359L28.8082 39.5361C30.004 39.6955 30.7701 39.8578 31.2341 39.9873C31.723 40.1238 31.6661 40.1666 31.3629 39.9734C30.9879 39.7345 30.3339 39.1926 29.8519 38.244C29.3869 37.329 29.3404 36.5395 29.3404 36.2382H36.3016ZM29.7282 32.6359L30.6963 25.7423C26.7526 25.1885 25.5729 24.3896 25.3921 24.2338C25.3743 24.2185 25.403 24.2408 25.4467 24.3027C25.4908 24.3651 25.5189 24.4236 25.5319 24.4572C25.5539 24.5141 25.4739 24.3467 25.4739 23.76H18.5127H11.5514C11.5514 27.4764 12.6136 31.6006 16.3033 34.7803C19.5484 37.5769 23.9765 38.8577 28.7602 39.5295L29.7282 32.6359ZM18.5127 23.76H25.4739C25.4739 23.56 25.5103 23.5417 25.4751 23.6129C25.4357 23.6927 25.4141 23.6689 25.559 23.5624C25.921 23.2965 27.281 22.5881 30.5453 22.5881V15.6269V8.66566C25.565 8.66566 20.9087 9.70277 17.3155 12.3428C13.4706 15.1679 11.5514 19.3277 11.5514 23.76H18.5127ZM30.5453 15.6269V22.5881C34.4758 22.5881 35.8236 23.2924 36.0362 23.4402C36.0466 23.4475 35.9091 23.3363 35.8117 23.1288C35.7347 22.9648 35.8023 22.9915 35.8023 23.3886H42.7635H49.7247C49.7247 19.1973 48.1436 14.902 43.9852 12.0101C40.3262 9.46544 35.5649 8.66566 30.5453 8.66566V15.6269ZM42.7635 23.3886H35.8023C35.8023 23.5861 35.7866 23.838 35.7434 24.4854L42.6892 24.9484L49.6351 25.4115C49.6662 24.9447 49.7247 24.1567 49.7247 23.3886H42.7635ZM42.6892 24.9484L43.0204 17.9951C42.1396 17.9531 40.8033 17.9129 39.4211 17.9129V24.8741V31.8354C40.5643 31.8354 41.6791 31.8694 42.3581 31.9018L42.6892 24.9484ZM39.4211 24.8741V17.9129C38.0461 17.9129 36.6359 17.9528 35.7476 17.9951L36.0788 24.9484L36.4099 31.9018C37.0814 31.8698 38.2708 31.8354 39.4211 31.8354V24.8741ZM36.0788 24.9484L42.97 25.9329C43.0894 25.0971 43.0771 24.2943 43.0771 24.1685H36.1159H29.1547C29.1547 24.2278 29.1546 24.2574 29.1544 24.284C29.1542 24.3081 29.1539 24.3127 29.1542 24.3046C29.1544 24.297 29.1556 24.265 29.1595 24.2143C29.1633 24.165 29.1711 24.0785 29.1875 23.9639L36.0788 24.9484ZM36.1159 24.1685H43.0771C43.0771 23.0345 42.8946 21.4674 42.0501 19.8497C41.1699 18.1636 39.8458 16.9481 38.402 16.1399C35.8986 14.7385 32.9071 14.4963 30.3224 14.4963V21.4575V28.4187C31.2669 28.4187 31.8109 28.4761 32.0735 28.5205C32.3604 28.569 32.0987 28.5668 31.6015 28.2884C31.0119 27.9584 30.2449 27.3208 29.7082 26.2927C29.2072 25.3331 29.1547 24.5041 29.1547 24.1685H36.1159ZM30.3224 21.4575V14.4963C28.2317 14.4963 25.5945 14.7046 23.2847 15.9712C21.9813 16.686 20.7078 17.7792 19.815 19.3505C18.9348 20.8999 18.6819 22.4611 18.6819 23.7229H25.6431H32.6043C32.6043 24.2976 32.486 25.2322 31.9203 26.2279C31.3421 27.2457 30.5629 27.8584 29.9791 28.1786C29.4598 28.4633 29.1356 28.4987 29.2574 28.4777C29.3598 28.46 29.6845 28.4187 30.3224 28.4187V21.4575ZM25.6431 23.7229H18.6819C18.6819 24.6544 18.8031 26.1663 19.6235 27.7948C20.4574 29.4502 21.7081 30.6277 22.9983 31.444C25.2513 32.8693 28.1853 33.5326 31.3053 33.9616L32.2536 27.0653L33.2018 20.1689C31.9153 19.992 31.0946 19.8143 30.6011 19.6754C30.0794 19.5284 30.1308 19.4816 30.4418 19.6784C30.8222 19.919 31.5344 20.493 32.0573 21.5311C32.5666 22.5421 32.6043 23.4227 32.6043 23.7229H25.6431ZM32.2536 27.0653L31.2782 33.9578C32.9568 34.1954 34.1498 34.4844 34.9827 34.7749C35.8116 35.064 36.1299 35.3014 36.1958 35.3562C36.2123 35.3699 36.1372 35.294 36.0985 35.1992C36.081 35.1566 36.1737 35.351 36.1737 35.9783H43.1349H50.0961C50.0961 31.8729 48.7999 27.7301 45.0975 24.6513C41.8508 21.9515 37.5546 20.7848 33.2289 20.1727L32.2536 27.0653ZM43.1349 35.9783H36.1737C36.1737 36.2011 36.154 36.3544 36.1353 36.4491C36.117 36.5417 36.0992 36.5818 36.0974 36.5859C36.0965 36.5879 36.101 36.5789 36.1076 36.5705C36.1139 36.5626 36.1003 36.5829 36.0436 36.6265C35.7846 36.8258 34.5202 37.5587 31.0652 37.5587V44.5199V51.4812C36.1147 51.4812 40.8852 50.4686 44.5348 47.6598C48.4736 44.6285 50.0961 40.2961 50.0961 35.9783H43.1349ZM31.0652 44.5199V37.5587C26.9554 37.5587 25.4163 36.8586 25.0729 36.6307C25.0079 36.5876 25.1383 36.6707 25.2408 36.8796C25.3238 37.0489 25.2511 37.0252 25.2511 36.6096H18.2899H11.3286C11.3286 41.0337 13.0794 45.3807 17.3745 48.2311C21.1162 50.7143 25.9649 51.4812 31.0652 51.4812V44.5199ZM18.2899 36.6096H25.2511C25.2511 36.3305 25.2668 36.0484 25.3148 35.6404L18.4013 34.827L11.4877 34.0137C11.3872 34.8683 11.3286 35.7004 11.3286 36.6096H18.2899ZM18.4013 34.827L17.0987 41.6653C18.5434 41.9405 20.3766 42.0111 21.7808 42.0111V35.0498V28.0886C21.2548 28.0886 20.7537 28.0733 20.3371 28.0469C19.8778 28.0177 19.684 27.985 19.7038 27.9887L18.4013 34.827ZM21.7808 35.0498V42.0111C23.2886 42.0111 24.7736 41.9721 26.0088 41.8806L25.4945 34.9384L24.9803 27.9962C24.21 28.0533 23.0955 28.0886 21.7808 28.0886V35.0498Z" fill="white" mask="url(#path-2-outside-1_2020_147)"/>
<path d="M28.458 6.98508C29.1044 5.74892 30.8956 5.74892 31.542 6.98508L31.6025 7.11301L37.5186 20.8503L52.4131 22.2321C53.9375 22.3735 54.5535 24.2706 53.4033 25.281L42.165 35.1521L45.4541 49.7448C45.7907 51.2383 44.1777 52.4103 42.8613 51.6286L30 43.9909L17.1387 51.6286C15.8223 52.4103 14.2093 51.2383 14.5459 49.7448L17.834 35.1521L6.59668 25.281C5.4465 24.2706 6.06249 22.3735 7.58691 22.2321L22.4805 20.8503L28.3975 7.11301L28.458 6.98508Z" fill="#838383" stroke="#393939" stroke-width="2.22138"/>
<mask id="path-5-outside-2_2020_147" maskUnits="userSpaceOnUse" x="13.7909" y="13.5154" width="33" height="34" fill="black">
<rect fill="white" x="13.7909" y="13.5154" width="33" height="34"/>
<path d="M19.3071 38.349C20.6275 39.0217 22.0103 39.5263 23.4553 39.8626C24.9004 40.1989 26.2457 40.3671 27.4915 40.3671C28.9241 40.3671 29.9705 40.1616 30.6307 39.7505C31.3034 39.3394 31.6397 38.7788 31.6397 38.0688C31.6397 37.8445 31.5961 37.6141 31.5089 37.3774C31.4342 37.1407 31.2785 36.9102 31.0418 36.686C30.8176 36.4493 30.4999 36.2188 30.0888 35.9946C29.6902 35.7579 29.167 35.5275 28.5192 35.3032L25.1744 34.1634C22.7826 33.3412 20.9826 32.2325 19.7742 30.8373C18.5658 29.4296 17.9617 27.7604 17.9617 25.8295C17.9617 24.5838 18.2233 23.3879 18.7465 22.2418C19.2697 21.0833 20.0607 20.068 21.1196 19.196C22.1785 18.3115 23.5114 17.6077 25.1184 17.0845C26.7378 16.5613 28.6313 16.2997 30.7989 16.2997C31.8702 16.2997 32.8979 16.362 33.882 16.4866C34.8662 16.6111 35.788 16.7731 36.6476 16.9724C37.5196 17.1717 38.3168 17.4022 39.0393 17.6638C39.7619 17.9129 40.3972 18.1621 40.9453 18.4112L38.9272 22.055C38.5286 21.8058 38.105 21.5878 37.6566 21.4009C37.2206 21.2141 36.7784 21.0584 36.3299 20.9338C35.8939 20.8092 35.4641 20.7158 35.0406 20.6535C34.617 20.5912 34.2308 20.5601 33.882 20.5601C33.2841 20.5601 32.7609 20.6411 32.3124 20.803C31.864 20.9525 31.484 21.158 31.1726 21.4196C30.8736 21.6688 30.6432 21.9553 30.4812 22.2792C30.3317 22.5906 30.257 22.902 30.257 23.2135C30.257 23.4875 30.3193 23.7554 30.4438 24.017C30.5809 24.2661 30.8051 24.5153 31.1165 24.7644C31.4404 25.0011 31.8577 25.244 32.3685 25.4932C32.8917 25.7298 33.5395 25.979 34.3118 26.2406L36.5541 26.988C38.9833 27.7977 40.8394 28.9127 42.1225 30.3328C43.4056 31.7529 44.0472 33.472 44.0472 35.4901C44.0472 36.8604 43.7357 38.1248 43.1129 39.2833C42.5025 40.4419 41.5869 41.4447 40.366 42.2918C39.1452 43.1264 37.6254 43.7804 35.8067 44.2538C34.0004 44.7147 31.9013 44.9452 29.5095 44.9452C28.3635 44.9452 27.2548 44.8829 26.1835 44.7583C25.1246 44.6462 24.0844 44.4718 23.0629 44.2351C22.0539 43.9984 21.0573 43.6994 20.0732 43.3382C19.0891 42.9769 18.1049 42.5534 17.1208 42.0675L19.3071 38.349Z"/>
</mask>
<path d="M19.3071 38.349C20.6275 39.0217 22.0103 39.5263 23.4553 39.8626C24.9004 40.1989 26.2457 40.3671 27.4915 40.3671C28.9241 40.3671 29.9705 40.1616 30.6307 39.7505C31.3034 39.3394 31.6397 38.7788 31.6397 38.0688C31.6397 37.8445 31.5961 37.6141 31.5089 37.3774C31.4342 37.1407 31.2785 36.9102 31.0418 36.686C30.8176 36.4493 30.4999 36.2188 30.0888 35.9946C29.6902 35.7579 29.167 35.5275 28.5192 35.3032L25.1744 34.1634C22.7826 33.3412 20.9826 32.2325 19.7742 30.8373C18.5658 29.4296 17.9617 27.7604 17.9617 25.8295C17.9617 24.5838 18.2233 23.3879 18.7465 22.2418C19.2697 21.0833 20.0607 20.068 21.1196 19.196C22.1785 18.3115 23.5114 17.6077 25.1184 17.0845C26.7378 16.5613 28.6313 16.2997 30.7989 16.2997C31.8702 16.2997 32.8979 16.362 33.882 16.4866C34.8662 16.6111 35.788 16.7731 36.6476 16.9724C37.5196 17.1717 38.3168 17.4022 39.0393 17.6638C39.7619 17.9129 40.3972 18.1621 40.9453 18.4112L38.9272 22.055C38.5286 21.8058 38.105 21.5878 37.6566 21.4009C37.2206 21.2141 36.7784 21.0584 36.3299 20.9338C35.8939 20.8092 35.4641 20.7158 35.0406 20.6535C34.617 20.5912 34.2308 20.5601 33.882 20.5601C33.2841 20.5601 32.7609 20.6411 32.3124 20.803C31.864 20.9525 31.484 21.158 31.1726 21.4196C30.8736 21.6688 30.6432 21.9553 30.4812 22.2792C30.3317 22.5906 30.257 22.902 30.257 23.2135C30.257 23.4875 30.3193 23.7554 30.4438 24.017C30.5809 24.2661 30.8051 24.5153 31.1165 24.7644C31.4404 25.0011 31.8577 25.244 32.3685 25.4932C32.8917 25.7298 33.5395 25.979 34.3118 26.2406L36.5541 26.988C38.9833 27.7977 40.8394 28.9127 42.1225 30.3328C43.4056 31.7529 44.0472 33.472 44.0472 35.4901C44.0472 36.8604 43.7357 38.1248 43.1129 39.2833C42.5025 40.4419 41.5869 41.4447 40.366 42.2918C39.1452 43.1264 37.6254 43.7804 35.8067 44.2538C34.0004 44.7147 31.9013 44.9452 29.5095 44.9452C28.3635 44.9452 27.2548 44.8829 26.1835 44.7583C25.1246 44.6462 24.0844 44.4718 23.0629 44.2351C22.0539 43.9984 21.0573 43.6994 20.0732 43.3382C19.0891 42.9769 18.1049 42.5534 17.1208 42.0675L19.3071 38.349Z" fill="white"/>
<path d="M19.3071 38.349L20.3461 36.3094L18.426 35.3312L17.3338 37.1889L19.3071 38.349ZM30.6307 39.7505L29.4371 37.7973L29.4289 37.8023L29.4208 37.8073L30.6307 39.7505ZM31.5089 37.3774L29.3261 38.0667L29.3424 38.1181L29.361 38.1687L31.5089 37.3774ZM31.0418 36.686L29.3801 38.2603L29.4226 38.3052L29.4675 38.3477L31.0418 36.686ZM30.0888 35.9946L28.9202 37.9629L28.9561 37.9842L28.9927 38.0042L30.0888 35.9946ZM28.5192 35.3032L29.268 33.1401L29.2576 33.1366L28.5192 35.3032ZM25.1744 34.1634L24.4303 36.3281L24.4361 36.3301L25.1744 34.1634ZM19.7742 30.8373L18.0373 32.3283L18.0439 32.3359L19.7742 30.8373ZM18.7465 22.2418L20.8288 23.1924L20.8326 23.1839L18.7465 22.2418ZM21.1196 19.196L22.5747 20.963L22.5809 20.9579L22.587 20.9528L21.1196 19.196ZM25.1184 17.0845L24.4146 14.9063L24.4097 14.9079L25.1184 17.0845ZM33.882 16.4866L33.5946 18.7575L33.5946 18.7575L33.882 16.4866ZM36.6476 16.9724L36.1305 19.2023L36.1375 19.2039L36.6476 16.9724ZM39.0393 17.6638L38.2601 19.8161L38.2766 19.822L38.2931 19.8278L39.0393 17.6638ZM40.9453 18.4112L42.9477 19.5202L44.1482 17.3527L41.8925 16.3273L40.9453 18.4112ZM38.9272 22.055L37.714 23.9961L39.7605 25.2751L40.9297 23.164L38.9272 22.055ZM37.6566 21.4009L36.7549 23.5049L36.7655 23.5095L36.7762 23.5139L37.6566 21.4009ZM36.3299 20.9338L35.701 23.1348L35.7091 23.1371L35.7172 23.1393L36.3299 20.9338ZM32.3124 20.803L33.0363 22.9746L33.0632 22.9656L33.0899 22.956L32.3124 20.803ZM31.1726 21.4196L32.638 23.1781L32.6449 23.1724L31.1726 21.4196ZM30.4812 22.2792L28.4338 21.2555L28.4256 21.272L28.4176 21.2886L30.4812 22.2792ZM30.4438 24.017L28.3772 25.0011L28.4059 25.0615L28.4381 25.1201L30.4438 24.017ZM31.1165 24.7644L29.6866 26.5518L29.7256 26.5831L29.766 26.6126L31.1165 24.7644ZM32.3685 25.4932L31.3649 27.5505L31.3948 27.565L31.425 27.5787L32.3685 25.4932ZM34.3118 26.2406L33.5775 28.4087L33.588 28.4122L34.3118 26.2406ZM36.5541 26.988L37.278 24.8165L36.5541 26.988ZM43.1129 39.2833L41.0967 38.1994L41.0922 38.2078L41.0877 38.2163L43.1129 39.2833ZM40.366 42.2918L41.6579 44.1814L41.6645 44.1769L41.671 44.1724L40.366 42.2918ZM35.8067 44.2538L36.3727 46.4718L36.3833 46.469L35.8067 44.2538ZM26.1835 44.7583L26.4478 42.4846L26.4362 42.4832L26.4245 42.482L26.1835 44.7583ZM23.0629 44.2351L22.5402 46.4637L22.5462 46.4651L23.0629 44.2351ZM17.1208 42.0675L15.1476 40.9074L13.8995 43.0301L16.1075 44.1201L17.1208 42.0675ZM19.3071 38.349L18.268 40.3887C19.7537 41.1455 21.3111 41.7137 22.9364 42.092L23.4553 39.8626L23.9742 37.6332C22.7094 37.3388 21.5013 36.8979 20.3461 36.3094L19.3071 38.349ZM23.4553 39.8626L22.9364 42.092C24.5203 42.4607 26.0416 42.6562 27.4915 42.6562V40.3671V38.0781C26.4498 38.0781 25.2804 37.9372 23.9742 37.6332L23.4553 39.8626ZM27.4915 40.3671V42.6562C29.0442 42.6562 30.6235 42.4514 31.8406 41.6936L30.6307 39.7505L29.4208 37.8073C29.3174 37.8717 28.8039 38.0781 27.4915 38.0781V40.3671ZM30.6307 39.7505L31.8243 41.7037C33.0877 40.9316 33.9288 39.6761 33.9288 38.0688H31.6397H29.3507C29.3507 38.0643 29.3514 38.0345 29.3638 37.9875C29.3766 37.9394 29.3974 37.8895 29.4246 37.844C29.4819 37.7486 29.5226 37.7451 29.4371 37.7973L30.6307 39.7505ZM31.6397 38.0688H33.9288C33.9288 37.5429 33.8258 37.0447 33.6568 36.586L31.5089 37.3774L29.361 38.1687C29.3664 38.1834 29.3507 38.1461 29.3507 38.0688H31.6397ZM31.5089 37.3774L33.6917 36.6881C33.4689 35.9826 33.0492 35.4346 32.6161 35.0243L31.0418 36.686L29.4675 38.3477C29.5078 38.3859 29.3994 38.2988 29.3261 38.0667L31.5089 37.3774ZM31.0418 36.686L32.7035 35.1117C32.26 34.6436 31.7227 34.2784 31.1849 33.9851L30.0888 35.9946L28.9927 38.0042C29.1281 38.078 29.225 38.1404 29.2912 38.1884C29.358 38.2369 29.3822 38.2625 29.3801 38.2603L31.0418 36.686ZM30.0888 35.9946L31.2574 34.0264C30.679 33.683 29.9996 33.3934 29.268 33.1401L28.5192 35.3032L27.7704 37.4664C28.3344 37.6616 28.7013 37.8329 28.9202 37.9629L30.0888 35.9946ZM28.5192 35.3032L29.2576 33.1366L25.9128 31.9967L25.1744 34.1634L24.4361 36.3301L27.7808 37.4699L28.5192 35.3032ZM25.1744 34.1634L25.9185 31.9987C23.7731 31.2612 22.3685 30.3363 21.5045 29.3387L19.7742 30.8373L18.0439 32.3359C19.5966 34.1288 21.7922 35.4213 24.4303 36.3281L25.1744 34.1634ZM19.7742 30.8373L21.5111 29.3464C20.6746 28.3718 20.2507 27.2377 20.2507 25.8295H17.9617H15.6726C15.6726 28.283 16.4571 30.4874 18.0373 32.3283L19.7742 30.8373ZM17.9617 25.8295H20.2507C20.2507 24.9156 20.4402 24.0436 20.8288 23.1924L18.7465 22.2418L16.6642 21.2912C16.0063 22.7322 15.6726 24.2519 15.6726 25.8295H17.9617ZM18.7465 22.2418L20.8326 23.1839C21.2003 22.3699 21.7648 21.63 22.5747 20.963L21.1196 19.196L19.6644 17.429C18.3566 18.506 17.3391 19.7967 16.6603 21.2997L18.7465 22.2418ZM21.1196 19.196L22.587 20.9528C23.3779 20.2922 24.4368 19.7137 25.827 19.2611L25.1184 17.0845L24.4097 14.9079C22.5859 15.5017 20.979 16.3309 19.6521 17.4392L21.1196 19.196ZM25.1184 17.0845L25.8221 19.2627C27.1618 18.8299 28.8081 18.5887 30.7989 18.5887V16.2997V14.0107C28.4545 14.0107 26.3138 14.2927 24.4146 14.9063L25.1184 17.0845ZM30.7989 16.2997V18.5887C31.7816 18.5887 32.713 18.6459 33.5946 18.7575L33.882 16.4866L34.1695 14.2156C33.0828 14.0781 31.9587 14.0107 30.7989 14.0107V16.2997ZM33.882 16.4866L33.5946 18.7575C34.5108 18.8735 35.3553 19.0225 36.1305 19.2023L36.6476 16.9724L37.1646 14.7425C36.2207 14.5236 35.2215 14.3488 34.1695 14.2156L33.882 16.4866ZM36.6476 16.9724L36.1375 19.2039C36.9326 19.3856 37.6385 19.591 38.2601 19.8161L39.0393 17.6638L39.8186 15.5115C38.9952 15.2133 38.1065 14.9578 37.1576 14.7409L36.6476 16.9724ZM39.0393 17.6638L38.2931 19.8278C38.9646 20.0593 39.5304 20.2825 39.9981 20.4951L40.9453 18.4112L41.8925 16.3273C41.264 16.0417 40.5591 15.7665 39.7855 15.4998L39.0393 17.6638ZM40.9453 18.4112L38.9429 17.3022L36.9248 20.9459L38.9272 22.055L40.9297 23.164L42.9477 19.5202L40.9453 18.4112ZM38.9272 22.055L40.1404 20.1139C39.6323 19.7962 39.097 19.5213 38.537 19.288L37.6566 21.4009L36.7762 23.5139C37.1131 23.6543 37.4249 23.8154 37.714 23.9961L38.9272 22.055ZM37.6566 21.4009L38.5583 19.297C38.0301 19.0706 37.4914 18.8807 36.9425 18.7283L36.3299 20.9338L35.7172 23.1393C36.0653 23.236 36.4111 23.3575 36.7549 23.5049L37.6566 21.4009ZM36.3299 20.9338L36.9587 18.7328C36.4313 18.5821 35.9027 18.4666 35.3736 18.3888L35.0406 20.6535L34.7075 22.9182C35.0255 22.965 35.3564 23.0363 35.701 23.1348L36.3299 20.9338ZM35.0406 20.6535L35.3736 18.3888C34.8635 18.3138 34.364 18.271 33.882 18.271V20.5601V22.8491C34.0977 22.8491 34.3705 22.8686 34.7075 22.9182L35.0406 20.6535ZM33.882 20.5601V18.271C33.0836 18.271 32.287 18.3785 31.535 18.65L32.3124 20.803L33.0899 22.956C33.2348 22.9036 33.4846 22.8491 33.882 22.8491V20.5601ZM32.3124 20.803L31.5886 18.6314C30.9102 18.8575 30.2654 19.1923 29.7003 19.6669L31.1726 21.4196L32.6449 23.1724C32.7027 23.1238 32.8177 23.0474 33.0363 22.9746L32.3124 20.803ZM31.1726 21.4196L29.7072 19.6611C29.184 20.0971 28.7473 20.6285 28.4338 21.2555L30.4812 22.2792L32.5286 23.3029C32.539 23.2821 32.5632 23.2404 32.638 23.1781L31.1726 21.4196ZM30.4812 22.2792L28.4176 21.2886C28.1361 21.8751 27.9679 22.5232 27.9679 23.2135H30.257H32.546C32.546 23.2427 32.5423 23.2663 32.5389 23.2805C32.5356 23.294 32.5347 23.2908 32.5448 23.2697L30.4812 22.2792ZM30.257 23.2135H27.9679C27.9679 23.8474 28.1148 24.4501 28.3772 25.0011L30.4438 24.017L32.5105 23.0328C32.5153 23.043 32.5251 23.0663 32.5332 23.1014C32.5415 23.1369 32.546 23.1754 32.546 23.2135H30.257ZM30.4438 24.017L28.4381 25.1201C28.7661 25.7163 29.228 26.185 29.6866 26.5518L31.1165 24.7644L32.5465 22.977C32.4704 22.9161 32.4311 22.8759 32.4162 22.8594C32.4013 22.8429 32.4199 22.86 32.4495 22.9138L30.4438 24.017ZM31.1165 24.7644L29.766 26.6126C30.2337 26.9544 30.7784 27.2643 31.3649 27.5505L32.3685 25.4932L33.3721 23.4358C32.9371 23.2237 32.6471 23.0478 32.4671 22.9163L31.1165 24.7644ZM32.3685 25.4932L31.425 27.5787C32.0382 27.8561 32.7609 28.1321 33.5775 28.4086L34.3118 26.2406L35.0462 24.0725C34.318 23.8259 33.7451 23.6036 33.312 23.4076L32.3685 25.4932ZM34.3118 26.2406L33.588 28.4122L35.8303 29.1596L36.5541 26.988L37.278 24.8165L35.0357 24.069L34.3118 26.2406ZM36.5541 26.988L35.8303 29.1596C38.007 29.8852 39.48 30.8225 40.4241 31.8674L42.1225 30.3328L43.821 28.7982C42.1988 27.0028 39.9596 25.7103 37.278 24.8165L36.5541 26.988ZM42.1225 30.3328L40.4241 31.8674C41.305 32.8424 41.7581 34.0053 41.7581 35.4901H44.0472H46.3362C46.3362 32.9388 45.5063 30.6635 43.821 28.7982L42.1225 30.3328ZM44.0472 35.4901H41.7581C41.7581 36.4985 41.5329 37.3882 41.0967 38.1994L43.1129 39.2833L45.129 40.3673C45.9386 38.8614 46.3362 37.2223 46.3362 35.4901H44.0472ZM43.1129 39.2833L41.0877 38.2163C40.6705 39.0083 40.0211 39.745 39.0611 40.4111L40.366 42.2918L41.671 44.1724C43.1526 43.1443 44.3344 41.8755 45.138 40.3503L43.1129 39.2833ZM40.366 42.2918L39.0741 40.4021C38.1212 41.0536 36.8595 41.6145 35.2301 42.0385L35.8067 44.2538L36.3833 46.469C38.3914 45.9463 40.1693 45.1992 41.6579 44.1814L40.366 42.2918ZM35.8067 44.2538L35.2407 42.0358C33.6629 42.4384 31.7613 42.6561 29.5095 42.6561V44.9452V47.2342C32.0414 47.2342 34.3379 46.991 36.3727 46.4717L35.8067 44.2538ZM29.5095 44.9452V42.6561C28.4464 42.6561 27.4261 42.5983 26.4478 42.4846L26.1835 44.7583L25.9191 47.032C27.0834 47.1674 28.2806 47.2342 29.5095 47.2342V44.9452ZM26.1835 44.7583L26.4245 42.482C25.4569 42.3795 24.5089 42.2204 23.5796 42.0051L23.0629 44.2351L22.5462 46.4651C23.66 46.7231 24.7923 46.9128 25.9424 47.0346L26.1835 44.7583ZM23.0629 44.2351L23.5857 42.0065C22.6679 41.7913 21.7601 41.519 20.862 41.1893L20.0732 43.3382L19.2844 45.487C20.3545 45.8798 21.4399 46.2055 22.5402 46.4636L23.0629 44.2351ZM20.0732 43.3382L20.862 41.1893C19.9578 40.8574 19.0485 40.4664 18.1341 40.015L17.1208 42.0675L16.1075 44.1201C17.1613 44.6403 18.2203 45.0964 19.2844 45.487L20.0732 43.3382ZM17.1208 42.0675L19.0941 43.2277L21.2803 39.5092L19.3071 38.349L17.3338 37.1889L15.1476 40.9074L17.1208 42.0675Z" fill="#393939" mask="url(#path-5-outside-2_2020_147)"/>
<defs>
<linearGradient id="paint0_linear_2020_147" x1="30" y1="6.19994" x2="30" y2="56.1999" gradientUnits="userSpaceOnUse">
<stop stop-color="#BFBFBF"/>
<stop offset="1" stop-color="#494949"/>
</linearGradient>
</defs>
</svg>
